<?xml version="1.0" encoding="UTF-8"?>
<svg xmlns="http://www.w3.org/2000/svg" xmlns:xlink="http://www.w3.org/1999/xlink" width="49px" height="37px" viewBox="0 0 49 37" version="1.1">
<g id="surface1">
<rect x="0" y="0" width="49" height="37" style="fill:rgb(4.705882%,34.901961%,4.313725%);fill-opacity:1;stroke:none;"/>
<path style=" stroke:none;fill-rule:evenodd;fill:rgb(100%,100%,100%);fill-opacity:1;" d="M -3.0625 0 L 10.757812 0 L 10.757812 37 L -3.0625 37 Z M -3.0625 0 "/>
<path style=" stroke:none;fill-rule:evenodd;fill:rgb(100%,100%,100%);fill-opacity:1;" d="M 32.734375 16.289062 L 30.496094 15.816406 L 29.320312 17.789062 L 29.074219 15.5 L 26.847656 14.984375 L 28.933594 14.042969 L 28.734375 11.75 L 30.265625 13.457031 L 32.371094 12.558594 L 31.234375 14.550781 Z M 32.734375 16.289062 "/>
<path style=" stroke:none;fill-rule:evenodd;fill:rgb(100%,100%,100%);fill-opacity:1;" d="M 33.578125 22.121094 C 31.589844 26.523438 26.378906 28.449219 21.992188 26.402344 C 17.601562 24.355469 15.691406 19.109375 17.722656 14.691406 C 18.761719 12.4375 20.457031 10.886719 22.851562 10.042969 C 22.578125 10.277344 22.304688 10.519531 22.007812 10.832031 C 18.910156 14.046875 18.992188 19.183594 22.1875 22.300781 C 25.378906 25.414062 30.484375 25.335938 33.578125 22.121094 Z M 33.578125 22.121094 "/>
</g>
</svg>
