<?xml version="1.0" encoding="UTF-8"?>
<svg xmlns="http://www.w3.org/2000/svg" xmlns:xlink="http://www.w3.org/1999/xlink" width="49px" height="37px" viewBox="0 0 49 37" version="1.1">
<g id="surface1">
<rect x="0" y="0" width="49" height="37" style="fill:rgb(9.803922%,61.568627%,0%);fill-opacity:1;stroke:none;"/>
<path style=" stroke:none;fill-rule:evenodd;fill:rgb(100%,100%,100%);fill-opacity:1;" d="M 10.828125 10.488281 C 10.765625 11.351562 10.6875 12.875 11.417969 13.03125 C 12.300781 13.113281 11.816406 11.527344 12.132812 11.238281 C 12.195312 11.09375 12.304688 11.09375 12.316406 11.273438 L 12.316406 12.621094 C 12.308594 13.058594 12.59375 13.191406 12.816406 13.28125 C 13.046875 13.261719 13.199219 13.269531 13.292969 13.496094 L 13.398438 15.828125 C 13.398438 15.828125 13.9375 15.984375 13.960938 14.515625 C 13.988281 13.65625 13.792969 12.933594 13.90625 12.769531 C 13.910156 12.601562 14.121094 12.59375 14.265625 12.671875 C 14.496094 12.835938 14.597656 13.039062 14.957031 12.957031 C 15.5 12.808594 15.828125 12.539062 15.835938 12.117188 C 15.804688 11.71875 15.761719 11.316406 15.589844 10.917969 C 15.613281 10.84375 15.484375 10.65625 15.507812 10.582031 C 15.605469 10.738281 15.753906 10.722656 15.789062 10.582031 C 15.695312 10.273438 15.550781 9.980469 15.316406 9.851562 C 15.125 9.679688 14.84375 9.714844 14.738281 10.070312 C 14.691406 10.484375 14.886719 10.972656 15.183594 11.371094 C 15.246094 11.527344 15.335938 11.785156 15.296875 12.019531 C 15.136719 12.109375 14.980469 12.070312 14.847656 11.929688 C 14.847656 11.929688 14.414062 11.601562 14.414062 11.527344 C 14.527344 10.785156 14.4375 10.703125 14.375 10.496094 C 14.332031 10.210938 14.195312 10.121094 14.089844 9.925781 C 13.980469 9.808594 13.832031 9.808594 13.761719 9.925781 C 13.570312 10.261719 13.660156 10.980469 13.796875 11.300781 C 13.898438 11.597656 14.050781 11.785156 13.980469 11.785156 C 13.917969 11.953125 13.796875 11.914062 13.707031 11.71875 C 13.578125 11.320312 13.554688 10.726562 13.554688 10.457031 C 13.515625 10.125 13.472656 9.414062 13.253906 9.234375 C 13.121094 9.050781 12.925781 9.140625 12.859375 9.308594 C 12.84375 9.636719 12.84375 9.96875 12.878906 10.273438 C 13.027344 10.804688 13.074219 11.273438 13.148438 11.820312 C 13.167969 12.550781 12.726562 12.136719 12.746094 11.777344 C 12.847656 11.304688 12.820312 10.5625 12.730469 10.375 C 12.660156 10.1875 12.574219 10.140625 12.402344 10.171875 C 12.265625 10.164062 11.90625 10.554688 11.808594 11.203125 C 11.808594 11.203125 11.722656 11.535156 11.6875 11.832031 C 11.636719 12.167969 11.417969 12.402344 11.265625 11.785156 C 11.132812 11.335938 11.050781 10.230469 10.828125 10.488281 Z M 10.828125 10.488281 "/>
<path style=" stroke:none;fill-rule:evenodd;fill:rgb(100%,100%,100%);fill-opacity:1;" d="M 13.226562 14.035156 C 12.449219 14.417969 11.695312 14.777344 10.929688 15.144531 C 10.957031 14.621094 12.023438 13.675781 12.746094 13.660156 C 13.21875 13.675781 13.101562 13.847656 13.226562 14.035156 Z M 13.226562 14.035156 "/>
<path style=" stroke:none;fill-rule:evenodd;fill:rgb(100%,100%,100%);fill-opacity:1;" d="M 12.824219 14.757812 C 11.613281 17.902344 15.660156 18.339844 16.113281 14.886719 C 16.15625 14.746094 16.328125 14.605469 16.355469 14.835938 C 16.261719 17.960938 13.226562 18.175781 12.710938 17.195312 C 12.582031 16.960938 12.542969 16.445312 12.53125 16.136719 C 12.453125 15.523438 12.136719 15.757812 12.082031 16.371094 C 12.03125 16.707031 12.046875 16.804688 12.046875 17.128906 C 12.207031 19.597656 16.117188 18.539062 16.753906 16.5 C 17.089844 15.367188 16.699219 14.535156 16.878906 14.539062 C 17.269531 14.960938 17.808594 14.597656 17.929688 14.449219 C 17.980469 14.378906 18.109375 14.332031 18.199219 14.425781 C 18.5 14.644531 19.035156 14.539062 19.144531 14.152344 C 19.210938 13.777344 19.261719 13.386719 19.273438 12.980469 C 19.027344 13.058594 18.84375 13.109375 18.824219 13.214844 L 18.773438 13.546875 C 18.753906 13.65625 18.539062 13.660156 18.53125 13.523438 C 18.4375 13.09375 18.050781 13.039062 17.816406 13.703125 C 17.65625 13.832031 17.371094 13.859375 17.339844 13.664062 C 17.378906 13.21875 17.199219 13.15625 16.84375 13.367188 C 16.726562 12.484375 16.613281 11.636719 16.496094 10.753906 C 16.644531 10.75 16.78125 10.859375 16.917969 10.691406 C 16.769531 10.222656 16.453125 9.265625 16.28125 9.195312 C 16.195312 9.09375 16.121094 9.15625 16.011719 9.183594 C 15.824219 9.242188 15.648438 9.40625 15.703125 9.722656 C 15.925781 11.082031 16.070312 12.113281 16.292969 13.472656 C 16.328125 13.628906 16.195312 13.839844 16.023438 13.820312 C 15.734375 13.621094 15.660156 13.222656 15.167969 13.238281 C 14.808594 13.242188 14.398438 13.632812 14.347656 14.011719 C 14.289062 14.3125 14.265625 14.640625 14.347656 14.902344 C 14.597656 15.207031 14.902344 15.175781 15.167969 15.105469 C 15.382812 15.015625 15.5625 14.796875 15.640625 14.847656 C 15.691406 14.914062 15.652344 15.636719 14.617188 16.1875 C 13.988281 16.472656 13.492188 16.535156 13.222656 16.023438 C 13.054688 15.699219 13.234375 14.476562 12.824219 14.757812 Z M 12.824219 14.757812 "/>
<path style=" stroke:none;fill-rule:evenodd;fill:rgb(100%,100%,100%);fill-opacity:1;" d="M 17.960938 11.566406 C 18.203125 11.472656 19.355469 10.148438 19.355469 10.148438 C 19.296875 10.097656 19.242188 10.058594 19.183594 10.007812 C 19.121094 9.949219 19.125 9.894531 19.183594 9.839844 C 19.46875 9.671875 19.378906 9.304688 19.226562 9.136719 C 18.980469 9.023438 18.765625 9.0625 18.609375 9.144531 C 18.40625 9.335938 18.359375 9.644531 18.519531 9.839844 C 18.671875 9.910156 18.824219 10.070312 18.722656 10.15625 C 18.25 10.660156 16.960938 11.535156 17.109375 11.566406 C 17.144531 11.609375 17.9375 11.605469 17.960938 11.566406 Z M 11.007812 16.257812 C 10.578125 16.953125 10.539062 17.988281 10.777344 18.296875 C 10.902344 18.441406 11.113281 18.503906 11.265625 18.460938 C 11.539062 18.339844 11.65625 17.789062 11.589844 17.585938 C 11.5 17.441406 11.429688 17.417969 11.339844 17.542969 C 11.148438 17.929688 11.070312 17.664062 11.050781 17.445312 C 11.023438 17.03125 11.0625 16.652344 11.105469 16.347656 C 11.152344 16.039062 11.105469 16.136719 11.007812 16.257812 Z M 29.460938 15.152344 C 29.042969 14.246094 28.464844 13.351562 28.28125 13.007812 C 28.097656 12.664062 26.710938 10.636719 26.503906 10.40625 C 26.054688 9.867188 27.238281 10.632812 26.355469 9.5625 C 26.019531 9.269531 26 9.253906 25.71875 9.015625 C 25.578125 8.914062 25.234375 8.730469 25.175781 9.035156 C 25.144531 9.304688 25.160156 9.449219 25.207031 9.675781 C 25.238281 9.824219 25.457031 10.074219 25.5625 10.21875 C 26.96875 12.125 28.21875 14.046875 29.425781 16.46875 C 29.613281 16.378906 29.574219 15.300781 29.460938 15.152344 Z M 29.460938 15.152344 "/>
<path style=" stroke:none;fill-rule:evenodd;fill:rgb(100%,100%,100%);fill-opacity:1;" d="M 27.628906 18.175781 C 27.546875 18.269531 27.832031 18.667969 28.203125 18.667969 C 28.820312 18.59375 29.367188 18.246094 29.871094 17.324219 C 30.003906 17.109375 30.242188 16.648438 30.25 16.292969 C 30.296875 14.203125 30.144531 12.574219 29.835938 11.0625 C 29.8125 10.917969 29.824219 10.746094 29.851562 10.699219 C 29.890625 10.652344 30.027344 10.699219 30.097656 10.582031 C 30.203125 10.472656 29.816406 9.570312 29.597656 9.226562 C 29.519531 9.070312 29.492188 8.964844 29.363281 9.242188 C 29.226562 9.46875 29.132812 9.859375 29.144531 10.226562 C 29.441406 12.285156 29.53125 14.085938 29.722656 16.144531 C 29.738281 16.34375 29.710938 16.632812 29.578125 16.746094 C 29.09375 17.257812 28.390625 17.886719 27.628906 18.175781 Z M 35.988281 18.167969 C 35.546875 18.425781 35.546875 18.722656 35.90625 18.734375 C 36.523438 18.660156 37.253906 18.609375 37.757812 17.84375 C 37.894531 17.628906 38.054688 17.046875 38.0625 16.691406 C 38.109375 14.601562 38.035156 13.039062 37.722656 11.527344 C 37.703125 11.382812 37.640625 11.042969 37.664062 11 C 37.703125 10.894531 37.90625 11.011719 37.976562 10.890625 C 38.082031 10.78125 37.457031 9.96875 37.234375 9.621094 C 37.15625 9.46875 37.128906 9.363281 37 9.640625 C 36.863281 9.867188 36.816406 10.269531 36.871094 10.625 C 37.199219 12.859375 37.441406 14.539062 37.492188 16.519531 C 37.464844 16.707031 37.457031 16.808594 37.371094 17.046875 C 37.175781 17.296875 36.960938 17.609375 36.761719 17.757812 C 36.558594 17.910156 36.128906 18.054688 35.988281 18.167969 Z M 35.988281 18.167969 "/>
<path style=" stroke:none;fill-rule:evenodd;fill:rgb(100%,100%,100%);fill-opacity:1;" d="M 36.324219 16.164062 C 36.316406 15.640625 36.332031 15.1875 36.3125 14.800781 C 36.296875 14.410156 36.226562 14.089844 36.09375 13.816406 C 35.96875 13.519531 36.046875 13.28125 35.984375 12.964844 C 35.925781 12.648438 35.941406 12.175781 35.851562 11.800781 C 35.828125 11.652344 35.75 11.183594 35.773438 11.140625 C 35.8125 11.035156 35.949219 11.144531 36.019531 11.019531 C 36.121094 10.910156 35.664062 9.71875 35.433594 9.378906 C 35.351562 9.226562 35.199219 9.28125 35.011719 9.527344 C 34.839844 9.691406 34.902344 10.0625 34.96875 10.414062 C 35.414062 12.75 35.746094 14.863281 35.671875 17.082031 C 35.652344 17.273438 36.328125 16.519531 36.324219 16.164062 Z M 33.042969 13.269531 C 32.761719 13.261719 32.175781 12.722656 32.007812 12.402344 C 31.941406 12.222656 31.984375 12.042969 32.039062 11.941406 C 32.144531 11.871094 32.300781 11.796875 32.421875 11.867188 C 32.421875 11.867188 32.546875 12.042969 32.519531 12.066406 C 32.671875 12.136719 32.738281 12.097656 32.753906 12.035156 C 32.765625 11.925781 32.707031 11.859375 32.707031 11.738281 C 32.773438 11.410156 33.144531 11.359375 33.285156 11.570312 C 33.386719 11.695312 33.421875 11.964844 33.4375 12.148438 C 33.4375 12.242188 33.289062 12.132812 33.203125 12.15625 C 33.117188 12.175781 33.097656 12.277344 33.089844 12.363281 C 33.074219 12.601562 33.046875 12.980469 33.042969 13.269531 Z M 27.886719 16.742188 C 27.960938 16.03125 27.855469 14.765625 27.851562 14.347656 C 27.820312 13.359375 27.660156 11.445312 27.585938 11.125 C 27.5 10.523438 27.832031 11.191406 27.785156 10.84375 C 27.675781 10.242188 27.347656 9.832031 26.957031 9.28125 C 26.832031 9.105469 26.835938 9.066406 26.640625 9.328125 C 26.425781 9.816406 26.613281 10.152344 26.667969 10.535156 C 26.949219 11.777344 27.113281 12.921875 27.1875 14.054688 C 27.265625 15.183594 27.289062 16.40625 27.21875 17.597656 C 27.429688 17.605469 27.765625 17.257812 27.886719 16.742188 Z M 27.886719 16.742188 "/>
<path style=" stroke:none;fill-rule:evenodd;fill:rgb(100%,100%,100%);fill-opacity:1;" d="M 37.273438 15.605469 C 36.78125 14.773438 36.039062 13.871094 35.839844 13.535156 C 35.640625 13.203125 33.960938 11.019531 33.746094 10.800781 C 33.132812 10.152344 34.03125 10.695312 33.628906 10.191406 C 33.292969 9.820312 33.195312 9.703125 32.90625 9.476562 C 32.757812 9.382812 32.671875 9.203125 32.625 9.511719 C 32.605469 9.78125 32.585938 10.089844 32.601562 10.320312 C 32.601562 10.445312 32.734375 10.683594 32.84375 10.824219 C 34.335938 12.664062 35.960938 14.546875 37.269531 16.914062 C 37.453125 16.8125 37.390625 15.75 37.273438 15.605469 Z M 37.273438 15.605469 "/>
<path style=" stroke:none;fill-rule:evenodd;fill:rgb(10.588235%,64.313725%,0%);fill-opacity:1;" d="M 14.925781 14.070312 C 14.890625 14.132812 14.808594 14.214844 14.835938 14.296875 C 14.890625 14.371094 14.9375 14.386719 15.027344 14.390625 C 15.109375 14.390625 15.21875 14.410156 15.242188 14.363281 C 15.285156 14.316406 15.320312 14.21875 15.285156 14.125 C 15.199219 13.917969 14.96875 13.996094 14.925781 14.070312 Z M 14.925781 14.070312 "/>
<path style=" stroke:none;fill-rule:evenodd;fill:rgb(100%,100%,100%);fill-opacity:1;" d="M 31.546875 26.199219 C 32.207031 26.222656 32.636719 26.230469 33.222656 26.300781 C 33.222656 26.300781 33.726562 26.25 33.90625 26.222656 C 34.671875 26.148438 34.703125 27.320312 34.703125 27.320312 C 34.695312 28.003906 34.433594 28.039062 34.097656 28.113281 C 33.90625 28.136719 33.804688 27.996094 33.703125 27.847656 C 33.578125 27.902344 33.40625 27.910156 33.195312 27.878906 C 32.921875 27.863281 32.648438 27.863281 32.371094 27.847656 C 32.082031 27.820312 31.925781 27.878906 31.632812 27.851562 C 31.574219 27.945312 31.496094 28.078125 31.316406 28.035156 C 31.167969 28.019531 30.992188 27.597656 31.046875 27.28125 C 31.152344 27.050781 31.125 27.125 31.113281 27.023438 C 28.417969 26.957031 25.699219 26.835938 23.058594 26.871094 C 20.988281 26.878906 18.949219 26.964844 16.90625 27.050781 C 15.816406 27.035156 14.984375 26.859375 14.410156 26.015625 C 14.460938 26.015625 17.191406 26.171875 17.988281 26.117188 C 19.464844 26.101562 20.808594 25.980469 22.3125 25.9375 C 25.269531 25.988281 28.203125 25.988281 31.164062 26.195312 C 30.878906 26 30.871094 25.539062 31.304688 25.429688 C 31.34375 25.402344 31.363281 25.65625 31.425781 25.652344 C 31.777344 25.625 31.621094 26.101562 31.546875 26.199219 Z M 19.664062 9.777344 C 19.214844 11.066406 19.921875 12.476562 20.410156 12.339844 C 20.765625 12.488281 20.988281 11.8125 21.132812 11.070312 C 21.230469 10.863281 21.304688 10.839844 21.355469 10.949219 C 21.34375 11.933594 21.425781 12.152344 21.679688 12.449219 C 22.238281 12.886719 22.703125 12.503906 22.742188 12.46875 L 23.175781 12.03125 C 23.273438 11.925781 23.402344 11.921875 23.539062 12.011719 C 23.675781 12.132812 23.65625 12.34375 23.941406 12.492188 C 24.183594 12.585938 24.695312 12.511719 24.816406 12.304688 C 24.976562 12.027344 25.011719 11.933594 25.085938 11.828125 C 25.203125 11.675781 25.398438 11.742188 25.398438 11.792969 C 25.378906 11.875 25.265625 11.960938 25.34375 12.117188 C 25.476562 12.21875 25.511719 12.152344 25.589844 12.128906 C 25.875 11.992188 26.089844 11.371094 26.089844 11.371094 C 26.101562 11.136719 25.972656 11.15625 25.886719 11.203125 C 25.777344 11.273438 25.773438 11.292969 25.664062 11.359375 C 25.523438 11.382812 25.253906 11.476562 25.121094 11.265625 C 24.984375 11.015625 24.980469 10.667969 24.878906 10.414062 C 24.878906 10.398438 24.699219 10.019531 24.867188 9.992188 C 24.949219 10.007812 25.132812 10.058594 25.160156 9.90625 C 25.25 9.753906 24.96875 9.332031 24.777344 9.117188 C 24.613281 8.933594 24.382812 8.910156 24.160156 9.097656 C 24.003906 9.242188 24.027344 9.402344 23.996094 9.554688 C 23.957031 9.730469 23.964844 9.949219 24.140625 10.179688 C 24.296875 10.488281 24.582031 10.882812 24.488281 11.441406 C 24.488281 11.441406 24.320312 11.707031 24.03125 11.671875 C 23.914062 11.644531 23.71875 11.59375 23.613281 10.820312 C 23.535156 10.234375 23.632812 9.414062 23.386719 9.03125 C 23.296875 8.796875 23.230469 8.574219 23.011719 8.96875 C 22.953125 9.125 22.703125 9.363281 22.886719 9.847656 C 23.035156 10.15625 23.09375 10.660156 23.027344 11.21875 C 22.925781 11.378906 22.902344 11.433594 22.765625 11.589844 C 22.578125 11.796875 22.371094 11.742188 22.210938 11.667969 C 22.066406 11.566406 21.949219 11.515625 21.882812 11.195312 C 21.894531 10.691406 21.921875 9.859375 21.832031 9.683594 C 21.695312 9.410156 21.472656 9.511719 21.375 9.59375 C 20.917969 10.015625 20.691406 10.730469 20.550781 11.296875 C 20.421875 11.710938 20.289062 11.59375 20.191406 11.425781 C 19.960938 11.207031 19.945312 9.496094 19.664062 9.777344 Z M 19.664062 9.777344 "/>
<path style=" stroke:none;fill-rule:evenodd;fill:rgb(100%,100%,100%);fill-opacity:1;" d="M 21.015625 12.582031 C 21.21875 12.4375 21.125 12.335938 21.429688 12.640625 C 21.808594 13.296875 22.054688 14.148438 22.089844 14.902344 C 22.074219 15.085938 22.207031 15.203125 22.265625 15.164062 C 22.300781 14.726562 23.351562 14.121094 24.316406 14.03125 C 24.464844 14 24.394531 13.714844 24.417969 13.570312 C 24.359375 13.03125 24.71875 12.539062 25.222656 12.5 C 25.90625 12.601562 26.132812 12.96875 26.144531 13.53125 C 26.070312 14.609375 24.957031 14.792969 24.328125 14.878906 C 24.230469 14.914062 24.191406 14.960938 24.328125 15.011719 L 26.957031 15.023438 L 27.089844 15.101562 C 27.105469 15.167969 27.050781 15.113281 26.945312 15.285156 C 26.84375 15.457031 26.691406 15.855469 26.683594 16.117188 C 25.898438 16.371094 25.089844 16.484375 24.269531 16.582031 C 23.980469 16.730469 23.839844 16.921875 23.898438 17.140625 C 23.996094 17.382812 24.628906 17.625 24.628906 17.636719 C 24.75 17.710938 24.890625 17.890625 24.59375 18.253906 C 23.3125 18.195312 22.320312 17.644531 21.976562 16.871094 C 21.871094 16.789062 21.761719 16.871094 21.691406 16.976562 C 21.191406 17.625 20.699219 18.210938 19.84375 18.519531 C 19.335938 18.648438 18.816406 18.441406 18.570312 18.105469 C 18.40625 17.914062 18.410156 17.703125 18.351562 17.660156 C 18.074219 17.78125 15.710938 18.792969 16.011719 18.320312 C 16.585938 17.703125 17.582031 17.246094 18.460938 16.632812 C 18.527344 16.429688 18.640625 15.734375 18.988281 15.507812 C 19.007812 15.511719 18.933594 15.914062 18.941406 16.085938 C 18.945312 16.226562 18.933594 16.28125 18.960938 16.246094 C 19.023438 16.207031 20.089844 15.363281 20.171875 15.105469 C 20.277344 14.957031 20.203125 14.578125 20.203125 14.566406 C 20.003906 14.046875 19.722656 14.003906 19.617188 13.746094 C 19.523438 13.402344 19.566406 13.011719 19.761719 12.902344 C 19.933594 12.746094 20.140625 12.765625 20.328125 12.9375 C 20.542969 13.132812 20.734375 13.511719 20.789062 13.792969 C 20.753906 13.90625 20.507812 13.71875 20.421875 13.777344 C 20.574219 13.933594 20.644531 14.113281 20.699219 14.335938 C 20.839844 14.929688 20.796875 15.160156 20.65625 15.542969 C 20.179688 16.546875 19.574219 16.847656 19.046875 17.21875 C 19.03125 17.222656 19.023438 17.472656 19.222656 17.609375 C 19.289062 17.679688 19.566406 17.71875 19.890625 17.613281 C 20.519531 17.269531 21.171875 16.632812 21.496094 15.925781 C 21.589844 15.386719 21.460938 14.820312 21.320312 14.324219 C 21.113281 13.839844 20.867188 13.148438 20.867188 13.136719 C 20.859375 12.835938 20.882812 12.730469 21.015625 12.582031 Z M 14.136719 9.789062 C 14.441406 9.933594 15.007812 9.875 14.984375 9.382812 C 14.984375 9.339844 14.972656 9.191406 14.96875 9.152344 C 14.90625 9.007812 14.738281 9.042969 14.703125 9.191406 C 14.6875 9.242188 14.722656 9.320312 14.679688 9.347656 C 14.652344 9.371094 14.558594 9.355469 14.5625 9.222656 C 14.5625 9.179688 14.53125 9.132812 14.511719 9.105469 C 14.492188 9.089844 14.480469 9.089844 14.445312 9.089844 C 14.402344 9.089844 14.402344 9.101562 14.378906 9.136719 C 14.371094 9.171875 14.355469 9.207031 14.355469 9.25 C 14.351562 9.296875 14.332031 9.316406 14.296875 9.320312 C 14.257812 9.320312 14.265625 9.328125 14.234375 9.304688 C 14.214844 9.285156 14.191406 9.277344 14.191406 9.242188 C 14.191406 9.203125 14.183594 9.144531 14.171875 9.121094 C 14.15625 9.097656 14.128906 9.085938 14.097656 9.078125 C 13.933594 9.082031 13.921875 9.269531 13.933594 9.34375 C 13.921875 9.355469 13.914062 9.695312 14.136719 9.789062 Z M 14.136719 9.789062 "/>
<path style=" stroke:none;fill-rule:evenodd;fill:rgb(100%,100%,100%);fill-opacity:1;" d="M 23 13.566406 C 23.304688 13.710938 24.023438 13.628906 23.847656 13.160156 C 23.847656 13.117188 23.835938 12.96875 23.832031 12.929688 C 23.769531 12.785156 23.601562 12.820312 23.5625 12.96875 C 23.550781 13.019531 23.585938 13.097656 23.542969 13.121094 C 23.515625 13.148438 23.417969 13.132812 23.421875 12.996094 C 23.421875 12.953125 23.390625 12.90625 23.371094 12.878906 C 23.351562 12.867188 23.339844 12.863281 23.308594 12.863281 C 23.265625 12.867188 23.265625 12.878906 23.242188 12.914062 C 23.230469 12.949219 23.21875 12.984375 23.21875 13.027344 C 23.214844 13.074219 23.195312 13.089844 23.160156 13.097656 C 23.121094 13.097656 23.128906 13.101562 23.097656 13.082031 C 23.078125 13.0625 23.054688 13.054688 23.054688 13.019531 C 23.054688 12.980469 23.046875 12.921875 23.035156 12.898438 C 23.019531 12.875 22.992188 12.863281 22.960938 12.855469 C 22.796875 12.855469 22.785156 13.046875 22.792969 13.117188 C 22.78125 13.132812 22.777344 13.472656 23 13.566406 Z M 28.167969 12.003906 C 28.472656 12.148438 29.039062 12.085938 29.015625 11.597656 C 29.015625 11.550781 29.003906 11.40625 29 11.367188 C 28.9375 11.222656 28.769531 11.257812 28.730469 11.40625 C 28.71875 11.457031 28.753906 11.535156 28.710938 11.558594 C 28.683594 11.585938 28.585938 11.570312 28.589844 11.433594 C 28.589844 11.390625 28.558594 11.34375 28.539062 11.316406 C 28.519531 11.304688 28.507812 11.300781 28.476562 11.300781 C 28.433594 11.304688 28.433594 11.3125 28.410156 11.351562 C 28.398438 11.386719 28.386719 11.421875 28.386719 11.460938 C 28.382812 11.511719 28.363281 11.527344 28.328125 11.535156 C 28.289062 11.535156 28.296875 11.539062 28.265625 11.519531 C 28.246094 11.5 28.222656 11.492188 28.222656 11.453125 C 28.222656 11.417969 28.214844 11.359375 28.203125 11.332031 C 28.1875 11.3125 28.160156 11.300781 28.128906 11.292969 C 27.964844 11.292969 27.953125 11.484375 27.960938 11.554688 C 27.949219 11.570312 27.945312 11.910156 28.167969 12.003906 Z M 30.84375 15.929688 C 30.316406 16.527344 30.550781 17.515625 30.667969 17.730469 C 30.84375 18.078125 30.984375 18.304688 31.320312 18.476562 C 31.628906 18.703125 31.867188 18.5625 32 18.402344 C 32.3125 18.078125 32.316406 17.253906 32.460938 17.089844 C 32.5625 16.789062 32.820312 16.839844 32.945312 16.972656 C 33.066406 17.148438 33.207031 17.261719 33.382812 17.355469 C 33.671875 17.613281 34.019531 17.660156 34.359375 17.425781 C 34.589844 17.296875 34.742188 17.125 34.878906 16.789062 C 35.027344 16.382812 34.945312 14.503906 34.914062 13.386719 C 34.902344 13.300781 34.613281 11.855469 34.613281 11.839844 C 34.613281 11.824219 34.574219 11.101562 34.542969 10.929688 C 34.539062 10.859375 34.519531 10.839844 34.59375 10.847656 C 34.671875 10.914062 34.679688 10.917969 34.730469 10.941406 C 34.808594 10.953125 34.875 10.820312 34.828125 10.699219 L 34.109375 9.359375 C 34.050781 9.300781 33.976562 9.238281 33.882812 9.375 C 33.796875 9.453125 33.703125 9.59375 33.707031 9.773438 C 33.726562 10.089844 33.78125 10.414062 33.804688 10.730469 L 34.09375 12.359375 C 34.183594 13.523438 34.207031 14.472656 34.296875 15.636719 C 34.285156 16.125 34.132812 16.554688 33.988281 16.617188 C 33.988281 16.617188 33.773438 16.746094 33.628906 16.605469 C 33.523438 16.5625 33.097656 15.894531 33.097656 15.894531 C 32.882812 15.695312 32.738281 15.75 32.585938 15.894531 C 32.160156 16.308594 31.96875 17.078125 31.679688 17.613281 C 31.605469 17.730469 31.398438 17.832031 31.164062 17.601562 C 30.570312 16.789062 30.917969 15.632812 30.84375 15.929688 Z M 28.304688 9.152344 C 28.574219 9.269531 28.765625 9.820312 28.703125 10.089844 C 28.648438 10.421875 28.507812 10.785156 28.402344 10.738281 C 28.289062 10.695312 28.480469 10.40625 28.371094 10.101562 C 28.3125 9.902344 27.941406 9.542969 27.980469 9.433594 C 27.90625 9.210938 28.136719 9.113281 28.304688 9.152344 Z M 28.304688 9.152344 "/>
<path style=" stroke:none;fill-rule:evenodd;fill:rgb(100%,100%,100%);fill-opacity:1;" d="M 31.71875 16.257812 C 31.773438 15.59375 31.679688 15.1875 31.660156 14.800781 C 31.644531 14.410156 31.222656 11.433594 31.136719 11.140625 C 31.035156 10.582031 31.546875 11.066406 31.492188 10.742188 C 31.3125 10.332031 30.871094 9.734375 30.734375 9.378906 C 30.652344 9.226562 30.6875 9.09375 30.5 9.339844 C 30.328125 9.910156 30.265625 10.375 30.332031 10.726562 C 30.777344 13.0625 31.230469 15.003906 31.160156 17.222656 C 31.371094 17.226562 31.613281 16.738281 31.71875 16.257812 Z M 36.34375 10.09375 C 36.589844 10.21875 36.734375 10.910156 36.707031 11.109375 C 36.660156 11.46875 36.527344 11.859375 36.433594 11.808594 C 36.332031 11.761719 36.457031 11.273438 36.40625 11.121094 C 36.351562 10.90625 36.015625 10.515625 36.050781 10.398438 C 35.980469 10.15625 36.191406 10.050781 36.34375 10.09375 Z M 17.992188 15.003906 C 18.230469 15.09375 18.367188 15.601562 18.34375 15.746094 C 18.292969 16.011719 18.167969 16.300781 18.078125 16.261719 C 17.980469 16.230469 18.097656 15.867188 18.050781 15.757812 C 18.03125 15.484375 17.703125 15.34375 17.710938 15.226562 C 17.648438 15.011719 17.847656 14.972656 17.992188 15.003906 Z M 17.992188 15.003906 "/>
<path style=" stroke:none;fill-rule:evenodd;fill:rgb(10.588235%,61.568627%,0%);fill-opacity:1;" d="M 23.699219 15.765625 C 24.003906 15.785156 24.15625 16.027344 23.871094 16.128906 C 23.589844 16.222656 23.320312 16.300781 23.320312 16.710938 C 23.421875 17.28125 23.175781 17.085938 23.027344 17.007812 C 22.855469 16.882812 22.367188 16.578125 22.296875 15.925781 C 22.289062 15.773438 22.40625 15.640625 22.601562 15.640625 C 22.894531 15.722656 23.324219 15.726562 23.699219 15.765625 Z M 23.699219 15.765625 "/>
<path style=" stroke:none;fill-rule:evenodd;fill:rgb(100%,100%,100%);fill-opacity:1;" d="M 11.679688 8.988281 C 12.027344 9.09375 12.050781 9.609375 12.023438 9.761719 C 11.976562 10.035156 11.855469 10.332031 11.765625 10.296875 C 11.667969 10.261719 11.761719 9.886719 11.714844 9.769531 C 11.664062 9.609375 11.367188 9.308594 11.402344 9.222656 C 11.335938 9.039062 11.539062 8.957031 11.679688 8.988281 Z M 18.5625 11.421875 C 18.296875 11.566406 18.191406 12 18.359375 12.253906 C 18.511719 12.476562 18.757812 12.390625 18.792969 12.390625 C 19.054688 12.425781 19.210938 11.898438 19.210938 11.898438 C 19.210938 11.898438 19.21875 11.75 18.90625 12.03125 C 18.777344 12.054688 18.757812 12.003906 18.726562 11.929688 C 18.699219 11.792969 18.703125 11.65625 18.765625 11.519531 C 18.8125 11.386719 18.710938 11.328125 18.5625 11.421875 Z M 20.566406 8.789062 C 20.433594 8.878906 20.167969 9.160156 20.15625 9.480469 C 20.148438 9.660156 20.117188 9.660156 20.234375 9.777344 C 20.320312 9.902344 20.40625 9.890625 20.578125 9.796875 C 20.675781 9.726562 20.710938 9.675781 20.742188 9.554688 C 20.785156 9.347656 20.527344 9.652344 20.492188 9.421875 C 20.4375 9.210938 20.601562 9.121094 20.757812 8.917969 C 20.761719 8.773438 20.757812 8.675781 20.566406 8.789062 Z M 22.183594 9.078125 C 22.125 9.207031 22.054688 9.878906 22.066406 9.878906 C 22.023438 10.082031 22.277344 10.167969 22.390625 9.910156 C 22.566406 9.4375 22.566406 9.234375 22.578125 9.035156 C 22.523438 8.730469 22.320312 8.738281 22.183594 9.078125 Z M 32.371094 14.296875 C 32.40625 14.261719 33.804688 13.261719 33.804688 13.261719 C 33.949219 13.210938 33.917969 13.777344 33.851562 13.773438 C 33.878906 13.886719 32.472656 14.847656 32.371094 14.8125 C 32.300781 14.859375 32.230469 14.421875 32.371094 14.296875 Z M 33.648438 14.289062 C 33.894531 14.414062 33.992188 15.140625 33.964844 15.335938 C 33.972656 15.722656 33.726562 16.03125 33.632812 15.980469 C 33.53125 15.933594 33.640625 15.503906 33.59375 15.351562 C 33.539062 15.136719 33.328125 14.734375 33.363281 14.617188 C 33.292969 14.375 33.496094 14.246094 33.648438 14.289062 Z M 25.316406 17.421875 C 25.414062 17.277344 25.714844 17.070312 25.722656 17.070312 C 25.859375 17 25.996094 17.125 25.988281 17.117188 C 26.011719 17.257812 25.898438 17.386719 25.933594 17.574219 C 25.964844 17.648438 25.988281 17.734375 26.125 17.703125 C 26.347656 17.523438 26.550781 17.515625 26.773438 17.503906 C 26.945312 17.511719 26.953125 17.804688 26.84375 17.804688 C 26.433594 17.894531 26.25 18.007812 25.957031 18.117188 C 25.816406 18.199219 25.699219 18.097656 25.699219 18.085938 C 25.699219 18.074219 25.617188 18.007812 25.671875 17.820312 C 25.683594 17.671875 25.625 17.589844 25.5 17.609375 C 25.410156 17.65625 25.328125 17.691406 25.28125 17.585938 C 25.261719 17.503906 25.257812 17.464844 25.316406 17.421875 Z M 35.121094 17.8125 C 35.179688 17.890625 35.21875 17.960938 35.117188 18.085938 C 35.019531 18.179688 34.949219 18.226562 34.851562 18.316406 C 34.804688 18.398438 34.773438 18.519531 34.917969 18.558594 C 35.179688 18.632812 35.785156 18.234375 35.785156 18.226562 C 35.882812 18.152344 35.847656 18.011719 35.839844 18.011719 C 35.785156 17.949219 35.65625 17.988281 35.566406 17.976562 C 35.527344 17.976562 35.390625 17.957031 35.457031 17.835938 C 35.507812 17.757812 35.527344 17.714844 35.566406 17.621094 C 35.605469 17.53125 35.570312 17.46875 35.421875 17.421875 C 35.273438 17.394531 35.214844 17.40625 35.046875 17.421875 C 34.957031 17.4375 34.925781 17.480469 34.910156 17.589844 C 34.917969 17.757812 35.015625 17.746094 35.121094 17.8125 Z M 35.121094 17.8125 "/>
<path style=" stroke:none;fill-rule:evenodd;fill:rgb(14.509804%,62.352941%,0%);fill-opacity:1;" d="M 25.371094 13.710938 C 25.332031 13.777344 25.203125 13.777344 25.078125 13.703125 C 24.957031 13.632812 24.890625 13.523438 24.929688 13.457031 C 24.96875 13.386719 25.097656 13.390625 25.21875 13.460938 C 25.339844 13.535156 25.40625 13.644531 25.371094 13.710938 Z M 18.976562 9.839844 C 18.902344 9.855469 18.808594 9.792969 18.765625 9.691406 C 18.71875 9.59375 18.742188 9.5 18.816406 9.480469 C 18.886719 9.464844 18.984375 9.53125 19.027344 9.628906 C 19.070312 9.726562 19.050781 9.820312 18.976562 9.839844 Z M 18.976562 9.839844 "/>
<path style=" stroke:none;fill-rule:evenodd;fill:rgb(12.54902%,56.470588%,0%);fill-opacity:1;" d="M 31.625 27.097656 C 32.292969 27.128906 32.925781 27.105469 33.597656 27.136719 C 33.71875 27.242188 33.632812 27.496094 33.550781 27.480469 C 33.332031 27.472656 33.207031 27.46875 32.988281 27.460938 C 32.980469 27.246094 32.433594 27.28125 32.449219 27.46875 C 32.15625 27.503906 31.890625 27.460938 31.59375 27.449219 C 31.507812 27.339844 31.519531 27.140625 31.625 27.097656 Z M 31.625 27.097656 "/>
</g>
</svg>
