<svg width="24" height="24" viewBox="0 0 24 24" fill="none" xmlns="http://www.w3.org/2000/svg">
<path d="M12.1122 23.2038C5.7198 23.2038 0.538086 18.0221 0.538086 11.6297C0.538086 5.23738 5.7198 0.0556641 12.1122 0.0556641C18.5045 0.0556641 23.6862 5.23738 23.6862 11.6297C23.6862 18.0221 18.5045 23.2038 12.1122 23.2038ZM6.32512 18.8577V12.7871C6.32512 12.1732 6.56901 11.5844 7.00312 11.1503C7.43723 10.7162 8.02601 10.4723 8.63994 10.4723H15.5844C16.1983 10.4723 16.7871 10.7162 17.2212 11.1503C17.6553 11.5844 17.8992 12.1732 17.8992 12.7871V18.8577C19.3967 17.6588 20.4849 16.0243 21.0133 14.1801C21.5416 12.336 21.4842 10.3732 20.8489 8.56316C20.2135 6.75307 19.0317 5.185 17.4666 4.07566C15.9015 2.96632 14.0305 2.37048 12.1122 2.37048C10.1938 2.37048 8.32281 2.96632 6.75774 4.07566C5.19267 5.185 4.0108 6.75307 3.37546 8.56316C2.74012 10.3732 2.68268 12.336 3.21107 14.1801C3.73947 16.0243 4.82761 17.6588 6.32512 18.8577Z" fill="#323643"/>
</svg>
