<svg width="22" height="23" viewBox="0 0 22 23" fill="none" xmlns="http://www.w3.org/2000/svg">
<path d="M21.149 2.01266C21.2653 1.83835 21.3321 1.63575 21.3423 1.42645C21.3525 1.21716 21.3056 1.00903 21.2068 0.824274C21.1079 0.639517 20.9607 0.485062 20.781 0.377388C20.6012 0.269714 20.3956 0.212859 20.1861 0.212891H1.66755C1.45819 0.212999 1.25279 0.26989 1.07321 0.377506C0.893627 0.485122 0.746598 0.639432 0.647782 0.824C0.548965 1.00857 0.502061 1.21648 0.512064 1.4256C0.522068 1.63472 0.588605 1.83721 0.704589 2.0115L9.7694 15.6099V19.8888H6.29718V22.2036H15.5564V19.8888H12.0842V15.6099L21.149 2.01266ZM10.9268 13.1724L6.91639 7.15734H14.9372L10.9268 13.1724ZM18.024 2.52771L16.4812 4.84252H5.37241L3.82959 2.52771H18.024Z" fill="#323643"/>
</svg>
