<svg width="27" height="27" viewBox="0 0 27 27" fill="none" xmlns="http://www.w3.org/2000/svg">
<path d="M17.1363 22.3105C17.1363 24.2284 16.016 25.7828 14.0981 25.7828H6.93663C5.01877 25.7828 3.89844 24.2284 3.89844 22.3105" stroke="white" stroke-width="1.85185" stroke-miterlimit="10" stroke-linecap="round"/>
<path d="M17.8964 17.9702C18.855 17.9702 19.6325 18.9418 19.6325 20.1403C19.6325 21.3388 18.855 22.3104 17.8964 22.3104H3.13943C2.18077 22.3104 1.40332 21.3388 1.40332 20.1403C1.40332 18.9418 2.18077 17.9702 3.13943 17.9702" stroke="white" stroke-width="1.85185" stroke-miterlimit="10" stroke-linecap="round"/>
<path d="M18.3304 17.9701H9.3954C9.28044 17.9702 9.1702 18.0158 9.08887 18.0971L7.63325 19.5527C7.61309 19.5729 7.58916 19.5889 7.56281 19.5998C7.53647 19.6107 7.50823 19.6164 7.47971 19.6164C7.45119 19.6164 7.42295 19.6107 7.39661 19.5998C7.37026 19.5889 7.34633 19.5729 7.32617 19.5527L5.87055 18.0971C5.78922 18.0158 5.67898 17.9702 5.56402 17.9701H2.7054C2.36007 17.9701 2.02888 17.8329 1.78469 17.5888C1.5405 17.3446 1.40332 17.0134 1.40332 16.668V16.668C1.40332 16.3227 1.5405 15.9915 1.78469 15.7473C2.02888 15.5032 2.36007 15.366 2.7054 15.366H18.3304C18.6757 15.366 19.0069 15.5032 19.2511 15.7473C19.4953 15.9915 19.6325 16.3227 19.6325 16.668C19.6325 17.0134 19.4953 17.3446 19.2511 17.5888C19.0069 17.8329 18.6757 17.9701 18.3304 17.9701Z" stroke="white" stroke-width="1.85185" stroke-miterlimit="10" stroke-linecap="round"/>
<path d="M3.13965 14.715V14.7031C3.13965 11.7191 5.58105 10.1577 8.565 10.1577H12.4712C15.4552 10.1577 17.8966 11.7311 17.8966 14.715V14.7031" stroke="white" stroke-width="1.85185" stroke-miterlimit="10" stroke-linecap="round"/>
<path d="M12.7422 5.81738L13.1458 9.28798" stroke="white" stroke-width="1.85185" stroke-miterlimit="10" stroke-linecap="round"/>
<path d="M13.5557 25.7827H21.1137C21.5517 25.7827 21.9735 25.6171 22.2946 25.3192C22.6156 25.0213 22.8122 24.613 22.8449 24.1762L24.7861 5.81738" stroke="white" stroke-width="1.85185" stroke-miterlimit="10" stroke-linecap="round"/>
<path d="M19.6328 5.81733L20.5009 2.34511L23.0508 1.47705" stroke="white" stroke-width="1.85185" stroke-linecap="round" stroke-linejoin="round"/>
<path d="M11.8203 5.81738H25.7092" stroke="white" stroke-width="1.85185" stroke-miterlimit="10" stroke-linecap="round"/>
</svg>
