<svg width="26" height="24" viewBox="0 0 26 24" fill="none" xmlns="http://www.w3.org/2000/svg">
<path d="M19.3409 21.8701C18.3878 21.8701 17.0489 21.5567 15.044 20.5384C12.606 19.2954 10.7203 18.1479 8.2955 15.9492C5.95761 13.8251 4.81991 12.4499 3.22763 9.81575C1.4288 6.84156 1.73544 5.28256 2.07821 4.61625C2.48642 3.81988 3.08895 3.34357 3.86776 2.8708C4.31012 2.60732 4.77825 2.38145 5.2662 2.19606C5.31503 2.17697 5.36044 2.15877 5.40097 2.14235C5.64267 2.04336 6.00888 1.89376 6.47274 2.05357C6.78231 2.15922 7.05868 2.3754 7.4913 2.76382C8.37851 3.55931 9.59091 5.33094 10.0382 6.201C10.3385 6.78741 10.5372 7.1745 10.5377 7.60864C10.5377 8.11691 10.2564 8.50888 9.91513 8.93193C9.85116 9.01139 9.78768 9.0873 9.72616 9.16098C9.35458 9.60489 9.27304 9.73318 9.32675 9.96224C9.43563 10.4226 10.2476 11.7929 11.5821 13.0035C12.9166 14.214 14.3805 14.9056 14.8888 15.0042C15.1515 15.0552 15.2955 14.978 15.7994 14.6282C15.8717 14.578 15.9459 14.5261 16.0235 14.4741C16.544 14.1221 16.9552 13.8731 17.5011 13.8731H17.504C17.9791 13.8731 18.3858 14.0604 19.0597 14.3694C19.9386 14.7724 21.9459 15.8605 22.8263 16.6679C23.2545 17.0603 23.4932 17.3107 23.6099 17.5917C23.7857 18.0147 23.6202 18.3463 23.5123 18.5683C23.4942 18.6051 23.4742 18.6455 23.4532 18.6904C23.2477 19.1332 22.9978 19.5579 22.7066 19.9591C22.1876 20.6649 21.6617 21.2113 20.7838 21.5829C20.333 21.7767 19.8396 21.8749 19.3409 21.8701Z" fill="#C5002E"/>
</svg>
