<svg width="14" height="13" viewBox="0 0 14 13" fill="none" xmlns="http://www.w3.org/2000/svg">
<path d="M11.4545 3.9V2.6H10.1818V1.3H11.4545V0H12.7273V1.3H14V2.6H12.7273V3.9H11.4545ZM1.27273 13C0.922727 13 0.623106 12.8727 0.373864 12.6181C0.124621 12.3635 0 12.0575 0 11.7V3.9C0 3.5425 0.124621 3.23646 0.373864 2.98187C0.623106 2.72729 0.922727 2.6 1.27273 2.6H3.27727L4.45455 1.3H8.27273V2.6H5.01136L3.85 3.9H1.27273V11.7H11.4545V5.85H12.7273V11.7C12.7273 12.0575 12.6027 12.3635 12.3534 12.6181C12.1042 12.8727 11.8045 13 11.4545 13H1.27273ZM6.36364 10.725C7.15909 10.725 7.83523 10.4406 8.39205 9.87187C8.94886 9.30312 9.22727 8.6125 9.22727 7.8C9.22727 6.9875 8.94886 6.29688 8.39205 5.72812C7.83523 5.15937 7.15909 4.875 6.36364 4.875C5.56818 4.875 4.89205 5.15937 4.33523 5.72812C3.77841 6.29688 3.5 6.9875 3.5 7.8C3.5 8.6125 3.77841 9.30312 4.33523 9.87187C4.89205 10.4406 5.56818 10.725 6.36364 10.725ZM6.36364 9.425C5.91818 9.425 5.54167 9.26792 5.23409 8.95375C4.92652 8.63958 4.77273 8.255 4.77273 7.8C4.77273 7.345 4.92652 6.96042 5.23409 6.64625C5.54167 6.33208 5.91818 6.175 6.36364 6.175C6.80909 6.175 7.18561 6.33208 7.49318 6.64625C7.80076 6.96042 7.95455 7.345 7.95455 7.8C7.95455 8.255 7.80076 8.63958 7.49318 8.95375C7.18561 9.26792 6.80909 9.425 6.36364 9.425Z" fill="black"/>
</svg>
