<svg width="12" height="12" viewBox="0 0 16 14" fill="none" xmlns="http://www.w3.org/2000/svg">
<path d="M11.0552 -6.10242e-05C10.3402 6.36852e-05 9.63818 0.190476 9.02116 0.551622C8.40413 0.912768 7.89435 1.43163 7.54415 2.05494C7.19388 1.43149 6.68394 0.912525 6.06672 0.551369C5.4495 0.190214 4.74727 -0.000113826 4.03215 -6.10242e-05C2.93693 0.0590896 1.90667 0.538199 1.15569 1.3376C0.404716 2.13701 -0.00916265 3.19516 0.000153943 4.29194C0.000153943 9.88494 7.54415 13.7869 7.54415 13.7869C7.54415 13.7869 15.0882 9.88694 15.0882 4.29194C15.0975 3.19499 14.6834 2.1367 13.9323 1.33727C13.1811 0.537843 12.1506 0.0588412 11.0552 -6.10242e-05V-6.10242e-05Z" fill="white"/>
</svg>
