<svg width="12" height="12" viewBox="0 0 12 12" fill="none" xmlns="http://www.w3.org/2000/svg">
<path fill-rule="evenodd" clip-rule="evenodd" d="M6 12C2.6862 12 0 9.3138 0 6C0 2.6862 2.6862 0 6 0C9.3138 0 12 2.6862 12 6C12 9.3138 9.3138 12 6 12ZM8.7 3.3L4.8 4.8L3.3 8.7L7.2 7.2L8.7 3.3ZM5.40039 6.00039C5.40039 6.33176 5.66902 6.60039 6.00039 6.60039C6.33176 6.60039 6.60039 6.33176 6.60039 6.00039C6.60039 5.66902 6.33176 5.40039 6.00039 5.40039C5.66902 5.40039 5.40039 5.66902 5.40039 6.00039Z" fill="#C5002E"/>
</svg>
