<svg width="21" height="19" viewBox="0 0 21 19" fill="none" xmlns="http://www.w3.org/2000/svg">
<path d="M14.3076 0.699219C12.4748 0.699219 10.7965 1.45 9.58203 2.64243C12.5189 3.81277 14.5946 6.66134 14.5946 10.0178C14.5946 11.4531 14.1972 12.8222 13.5347 13.9925C13.7997 14.0146 14.0426 14.0367 14.3076 14.0367H17.4874L19.4968 15.6708C20.093 16.1566 20.9984 15.737 20.9984 14.9641V7.36796C20.9763 3.70236 17.9952 0.699219 14.3076 0.699219Z" fill="#C5002E"/>
<path d="M6.66874 3.37207C2.98106 3.37207 0 6.35313 0 10.0408V17.6149C0 18.3878 0.883277 18.8073 1.50157 18.3215L3.51103 16.6875H6.69082C10.3785 16.6875 13.3596 13.7064 13.3596 10.0187C13.3375 6.35313 10.3564 3.37207 6.66874 3.37207Z" fill="#C5002E"/>
</svg>
