<svg width="29" height="29" viewBox="0 0 29 29" fill="none" xmlns="http://www.w3.org/2000/svg">
<path d="M22.8123 7.41822C20.2955 6.39283 17.6544 5.94904 14.7416 5.94904C11.8287 5.94904 8.98527 6.43732 6.66322 7.39652C6.22485 7.57555 5.83531 7.8848 6.11688 8.45446C6.34529 8.91724 11.8661 21.0858 13.9636 25.426C14.0342 25.5727 14.1448 25.6964 14.2826 25.7829C14.4204 25.8695 14.5799 25.9154 14.7426 25.9154C14.9054 25.9154 15.0648 25.8695 15.2027 25.7829C15.3405 25.6964 15.4511 25.5727 15.5217 25.426L23.3369 8.48701C23.51 8.11266 23.3858 7.65151 22.8123 7.41822V7.41822Z" stroke="#323643" stroke-width="1.85185" stroke-miterlimit="10"/>
<path d="M24.5281 5.22624C21.7031 4.10862 18.2233 3.34473 14.7419 3.34473C11.2604 3.34473 7.83271 4.03809 4.94805 5.19369C4.6936 5.29785 4.21671 5.5382 4.34746 5.94239L4.87264 7.25098C5.08965 7.69586 5.34302 7.69586 5.6897 7.69586C5.78681 7.69586 5.92244 7.64161 6.08466 7.57759C8.84523 6.50532 11.7804 5.95312 14.7419 5.9489C17.8213 5.9489 20.9762 6.59994 23.4007 7.5765C23.5955 7.65246 23.704 7.69478 23.7957 7.69478C24.1527 7.69478 24.3589 7.81359 24.6095 7.25532L25.1396 5.9489C25.2486 5.62338 24.8688 5.36187 24.5281 5.22624Z" stroke="#323643" stroke-width="1.85185" stroke-miterlimit="10"/>
<path d="M11.2693 12.8935C12.2281 12.8935 13.0054 12.1162 13.0054 11.1574C13.0054 10.1985 12.2281 9.42126 11.2693 9.42126C10.3105 9.42126 9.5332 10.1985 9.5332 11.1574C9.5332 12.1162 10.3105 12.8935 11.2693 12.8935Z" fill="#323643"/>
<path d="M18.2137 13.7615C19.1725 13.7615 19.9498 12.9842 19.9498 12.0254C19.9498 11.0666 19.1725 10.2893 18.2137 10.2893C17.2548 10.2893 16.4775 11.0666 16.4775 12.0254C16.4775 12.9842 17.2548 13.7615 18.2137 13.7615Z" fill="#323643"/>
<path d="M14.741 19.8379C15.6998 19.8379 16.4771 19.0607 16.4771 18.1018C16.4771 17.143 15.6998 16.3657 14.741 16.3657C13.7822 16.3657 13.0049 17.143 13.0049 18.1018C13.0049 19.0607 13.7822 19.8379 14.741 19.8379Z" fill="#323643"/>
</svg>
