<svg width="16" height="20" viewBox="0 0 16 20" fill="none" xmlns="http://www.w3.org/2000/svg">
<path d="M8.00455 3.4C10.1045 3.4 12.1045 4.2 13.6045 5.7C16.7045 8.8 16.7045 13.9 13.6045 17C11.8045 18.9 9.30454 19.6 6.90454 19.3L7.40454 17.3C9.10454 17.5 10.9045 16.9 12.2045 15.6C14.5045 13.3 14.5045 9.5 12.2045 7.1C11.1045 6 9.50455 5.4 8.00455 5.4V10L3.00455 5L8.00455 0V3.4ZM2.30455 17C-0.295454 14.4 -0.695455 10.4 1.10455 7.3L2.60455 8.8C1.50455 11 1.90455 13.8 3.80455 15.6C4.30455 16.1 4.90455 16.5 5.60455 16.8L5.00455 18.8C4.00455 18.4 3.10455 17.8 2.30455 17Z" fill="#BCBCBC"/>
</svg>
