<svg width="18" height="16" viewBox="0 0 14 12" fill="none" xmlns="http://www.w3.org/2000/svg">
<path d="M4.99459 5.99609C5.00072 5.32287 5.18157 4.66279 5.51944 4.08047C5.85731 3.49815 6.34061 3.01356 6.92202 2.67413C7.03775 2.58269 7.17518 2.52278 7.32094 2.50025C7.4667 2.47773 7.61579 2.49334 7.75372 2.54557C7.89165 2.5978 8.01368 2.68488 8.10795 2.79831C8.20222 2.91174 8.26552 3.04764 8.29164 3.19279C8.43394 3.61044 8.60612 4.01815 8.74415 4.43722C8.78094 4.56301 8.85034 4.67683 8.9453 4.76717C9.04026 4.85751 9.15742 4.92115 9.28489 4.95162C9.70752 5.07329 10.1301 5.19354 10.5506 5.32018C10.6059 5.33062 10.6585 5.35198 10.7054 5.38302C10.7523 5.41405 10.7925 5.45414 10.8237 5.50092C10.855 5.5477 10.8765 5.60023 10.8872 5.65545C10.8978 5.71067 10.8973 5.76746 10.8858 5.82249C10.8793 5.88188 10.8602 5.9392 10.8298 5.99057C10.7993 6.04195 10.7582 6.08619 10.7091 6.12031C10.6601 6.15443 10.6043 6.17765 10.5456 6.18838C10.4868 6.19911 10.4264 6.19711 10.3685 6.18252C9.94517 6.12346 9.52324 6.05729 9.10346 5.97618C8.78869 5.92901 8.49021 5.80562 8.23402 5.61676C7.97782 5.4279 7.77169 5.17929 7.63352 4.89256C7.56237 4.75026 7.47555 4.61438 7.38234 4.45216C7.05514 4.77099 6.83533 5.18379 6.7534 5.63324C6.70146 5.83958 6.75337 5.93775 6.95829 6.00818C7.56733 6.21665 8.1721 6.43936 8.77402 6.66846C8.89391 6.69727 9.00464 6.75582 9.09594 6.83869C9.18725 6.92156 9.25622 7.02609 9.29648 7.14263C9.33675 7.25917 9.347 7.38398 9.32632 7.50554C9.30564 7.6271 9.25468 7.74149 9.17815 7.83817C8.87647 8.33621 8.55348 8.82144 8.23402 9.30882C8.00776 9.65389 8.00349 9.65104 8.23402 10.0011C8.24825 10.0224 8.27314 10.0445 8.27314 10.0658C8.27314 10.1804 8.30799 10.3313 8.24965 10.3996C8.20673 10.4419 8.15459 10.4737 8.09731 10.4924C8.04003 10.5112 7.97917 10.5164 7.91952 10.5077C7.61252 10.4207 7.31202 10.3123 7.02021 10.1832C6.96345 10.1647 6.91159 10.1337 6.86844 10.0924C6.82528 10.0512 6.79194 10.0007 6.7709 9.94486C6.74986 9.88899 6.74167 9.82909 6.74689 9.76961C6.75211 9.71014 6.77063 9.65261 6.80108 9.60125C7.02449 9.06383 7.24857 8.52642 7.47341 7.98901C7.49191 7.94418 7.50544 7.89793 7.52465 7.8467C7.04866 7.7044 6.58336 7.56637 6.12302 7.4198C5.92042 7.36356 5.72526 7.28331 5.54172 7.18074C5.34811 7.05494 5.19402 6.87698 5.09721 6.66737C5.0004 6.45776 4.96483 6.22505 4.99459 5.99609Z" fill="#C5002E"/>
<path d="M3.90118 6.64012C3.48638 6.6451 3.07086 6.63586 2.65606 6.6444C2.48415 6.64812 2.31302 6.66886 2.14519 6.7063C1.79242 6.78083 1.46716 6.95156 1.20545 7.19958C0.94374 7.44761 0.755804 7.76324 0.662448 8.11151L0.513062 8.55904L0.42343 8.54836C0.291525 8.24111 0.242511 7.90463 0.28134 7.57253C0.320168 7.24042 0.445419 6.92431 0.644644 6.65578C0.244783 6.56969 0.0463098 6.38116 0.0391948 6.05671C0.0202216 5.21762 0.00744665 4.37829 0.000806019 3.53873C-0.00339611 3.4598 0.00886382 3.38086 0.0368498 3.30694C0.0648358 3.23302 0.107886 3.16573 0.163307 3.10937C0.218728 3.05302 0.285283 3.00881 0.358725 2.97959C0.432167 2.95037 0.51085 2.93676 0.58984 2.93964C1.46451 2.93158 2.33925 2.93158 3.21391 2.93964C3.38578 2.93957 3.55183 3.00171 3.68144 3.11458C3.81105 3.22745 3.89544 3.38342 3.91898 3.55367C4.07836 4.3828 4.23557 5.21288 4.39068 6.0439C4.41172 6.11685 4.41469 6.19382 4.39936 6.26818C4.38404 6.34253 4.35087 6.41204 4.3027 6.47072C4.25452 6.5294 4.19278 6.57548 4.12283 6.60499C4.05288 6.6345 3.97683 6.64656 3.90118 6.64012Z" fill="#C5002E"/>
<path d="M10.734 7.43039C10.8657 7.36422 10.9191 7.30089 10.8628 7.15361C10.8228 7.03773 10.7923 6.91874 10.7718 6.79787C10.7334 6.60861 10.7974 6.47912 10.9397 6.44212C11.0955 6.40014 11.2193 6.48553 11.2712 6.67621C11.3182 6.84768 11.3602 7.02128 11.4085 7.21267C11.5815 7.20303 11.755 7.20303 11.928 7.21267C12.3562 7.26559 12.7579 7.4483 13.0791 7.73626C13.4004 8.02423 13.6259 8.40364 13.7252 8.82351C13.8237 9.24427 13.7916 9.68504 13.6332 10.0871C13.4748 10.4892 13.1976 10.8334 12.8387 11.074C12.4795 11.3114 12.0564 11.4332 11.626 11.4232C11.1956 11.4131 10.7786 11.2717 10.431 11.0177C10.141 10.8031 9.91072 10.5178 9.76208 10.1891C9.61344 9.86032 9.55135 9.49903 9.58173 9.13952C9.6121 8.78001 9.73392 8.43424 9.93561 8.13509C10.1373 7.83594 10.4122 7.59335 10.734 7.43039ZM10.49 9.75698C10.6005 10.0527 10.8171 10.2967 11.0977 10.4414C11.3782 10.5861 11.7027 10.6211 12.0077 10.5396C12.3196 10.453 12.5868 10.251 12.7553 9.97463C12.9237 9.69822 12.9808 9.36807 12.9148 9.05117C12.8548 8.75645 12.6897 8.4936 12.4503 8.31153C12.2109 8.12946 11.9135 8.0406 11.6135 8.06148C11.6697 8.2792 11.7202 8.49336 11.7842 8.70183C11.7949 8.73811 11.8554 8.76302 11.9009 8.78579C11.9748 8.81758 12.0411 8.86468 12.0955 8.92397C12.1499 8.98327 12.191 9.05342 12.2163 9.12979C12.2416 9.20616 12.2504 9.28703 12.2422 9.36705C12.2339 9.44707 12.2088 9.52444 12.1684 9.59404C12.1301 9.66055 12.0788 9.71865 12.0175 9.76481C11.9562 9.81098 11.8862 9.84426 11.8117 9.86267C11.7372 9.88108 11.6597 9.88424 11.5839 9.87195C11.5082 9.85965 11.4357 9.83216 11.3708 9.79113C11.3039 9.74695 11.2469 9.68939 11.2033 9.62207C11.1597 9.55475 11.1306 9.47916 11.1177 9.40001C11.1048 9.32087 11.1084 9.2399 11.1284 9.16223C11.1483 9.08456 11.1841 9.01187 11.2335 8.94873C11.2702 8.88764 11.2841 8.81555 11.2727 8.74523C11.2378 8.55811 11.1837 8.37526 11.1304 8.17604C10.8455 8.31208 10.6219 8.54972 10.5035 8.84227C10.385 9.13481 10.3802 9.46108 10.49 9.75698Z" fill="#C5002E"/>
<path d="M3.12233 7.20739C3.39966 7.20379 3.67489 7.25554 3.93197 7.35962C4.18905 7.4637 4.42279 7.61802 4.6195 7.81353C4.81621 8.00905 4.972 8.24184 5.07765 8.49828C5.18329 8.75472 5.23668 9.02966 5.23476 9.30701C5.2372 9.58421 5.18477 9.85916 5.08051 10.116C4.97625 10.3729 4.82219 10.6066 4.62723 10.8036C4.43227 11.0007 4.20028 11.1573 3.94457 11.2643C3.68885 11.3713 3.41448 11.4267 3.13727 11.4273C2.86 11.4276 2.58543 11.3732 2.32928 11.2671C2.07313 11.1609 1.84044 11.0051 1.64471 10.8088C1.44898 10.6124 1.29402 10.3792 1.18874 10.1227C1.08345 9.86617 1.02996 9.5914 1.03127 9.31413C1.02995 8.75769 1.24933 8.22342 1.64133 7.82849C2.03332 7.43357 2.5659 7.21021 3.12233 7.20739ZM3.13797 10.5856C3.47381 10.5818 3.79479 10.4463 4.03168 10.2083C4.26857 9.97017 4.40242 9.64855 4.40445 9.3127C4.40203 8.97624 4.26725 8.65425 4.02934 8.41633C3.79142 8.17841 3.46948 8.04368 3.13302 8.04126C2.96664 8.0419 2.80203 8.07551 2.64873 8.14016C2.49543 8.20482 2.3565 8.29924 2.23991 8.41794C2.12333 8.53664 2.03143 8.67727 1.96954 8.83171C1.90765 8.98614 1.87704 9.15131 1.87939 9.31767C1.87712 9.48384 1.90795 9.64881 1.97015 9.80291C2.03235 9.95702 2.12467 10.0972 2.24165 10.2152C2.35863 10.3333 2.49788 10.4268 2.65142 10.4904C2.80496 10.554 2.9697 10.5863 3.13588 10.5856H3.13797Z" fill="#C5002E"/>
<path d="M10.5129 1.44271C10.0955 1.36246 9.68322 1.25721 9.27843 1.12752C9.01233 1.04855 8.87003 1.13251 8.90774 1.40714C8.94779 1.64019 8.99979 1.87101 9.06355 2.09871C9.08064 2.18749 9.12274 2.26958 9.18489 2.33525C9.24703 2.40092 9.32665 2.44748 9.41435 2.46944C9.7765 2.5662 10.1393 2.66012 10.505 2.74194C10.6758 2.77965 10.7185 2.83728 10.6097 2.981C10.542 3.08771 10.4423 3.17029 10.3249 3.21693C10.2074 3.26358 10.0782 3.27189 9.95579 3.24069C9.50996 3.13575 9.07222 2.99902 8.64592 2.83157C8.36603 2.71369 8.12996 2.51134 7.97064 2.25278C7.81133 1.99423 7.7367 1.69239 7.75725 1.38938C7.78838 1.21396 7.8348 1.04159 7.89599 0.874261C8.01345 0.599357 8.21354 0.3678 8.46853 0.21175C8.72351 0.0556997 9.02074 -0.0171061 9.31899 0.00339042C9.63993 0.0207337 9.94867 0.132182 10.2067 0.323876C10.4647 0.51557 10.6605 0.778988 10.7697 1.08127C10.8757 1.37156 10.811 1.49038 10.5129 1.44271Z" fill="#C5002E"/>
<path d="M12.4343 6.76392C12.2567 6.71579 12.0853 6.64725 11.9235 6.55971C11.7892 6.4897 11.6771 6.38378 11.5996 6.25375C11.5221 6.12371 11.4822 5.97468 11.4845 5.82331C11.483 5.59452 11.5522 5.37088 11.6828 5.18301C11.8134 4.99513 11.9988 4.85223 12.2137 4.77387C12.2614 4.73686 12.3169 4.71134 12.376 4.6993C12.4351 4.68726 12.4962 4.68901 12.5545 4.70443C12.6128 4.71985 12.6667 4.74851 12.7122 4.7882C12.7576 4.82788 12.7933 4.87753 12.8164 4.93324C13.0045 5.23833 13.0953 5.59344 13.0768 5.95139C13.0358 6.15291 12.9811 6.3514 12.9131 6.54548C12.9004 6.59424 12.877 6.63956 12.8445 6.67813C12.8121 6.7167 12.7715 6.74756 12.7256 6.76848C12.6798 6.78939 12.6298 6.79984 12.5795 6.79905C12.5291 6.79826 12.4795 6.78626 12.4343 6.76392Z" fill="#C5002E"/>
<path d="M9.20004 1.25464C9.22993 1.24539 9.31961 1.32578 9.32459 1.37345C9.32957 1.42112 9.27332 1.48801 9.21498 1.60114C9.13458 1.49655 9.05775 1.43962 9.06273 1.38768C9.06771 1.33574 9.14241 1.26887 9.20004 1.25464Z" fill="#C5002E"/>
<path d="M3.10577 8.74329C3.18389 8.73846 3.26221 8.74956 3.33592 8.77588C3.40964 8.8022 3.47724 8.84319 3.53464 8.89641C3.59205 8.94962 3.63805 9.01395 3.66987 9.08546C3.7017 9.15698 3.71871 9.2342 3.71981 9.31247C3.7195 9.46416 3.66117 9.60999 3.55679 9.72005C3.45241 9.83012 3.30985 9.89608 3.1584 9.90444C3.08163 9.90662 3.00517 9.8936 2.93345 9.86614C2.86173 9.83867 2.79622 9.79731 2.74055 9.74441C2.68488 9.69152 2.64015 9.62814 2.60906 9.55792C2.57796 9.4877 2.56104 9.41203 2.55929 9.33525C2.55557 9.26033 2.56681 9.1854 2.59238 9.11488C2.61795 9.04436 2.65736 8.97967 2.70824 8.92455C2.75912 8.86943 2.82047 8.825 2.88872 8.79388C2.95697 8.76275 3.03079 8.74556 3.10577 8.74329Z" fill="#C5002E"/>
</svg>
