<svg width="323" height="342" viewBox="0 0 323 342" fill="none" xmlns="http://www.w3.org/2000/svg">
<path fill-rule="evenodd" clip-rule="evenodd" d="M238.578 16.9903C241.233 16.2291 242.768 13.4602 242.006 10.8058C241.245 8.15134 238.476 6.61652 235.822 7.37767C233.167 8.13882 231.633 10.9077 232.394 13.5622C233.155 16.2166 235.924 17.7514 238.578 16.9903Z" fill="#BF1E2D"/>
<path fill-rule="evenodd" clip-rule="evenodd" d="M236.59 16.9903C239.244 16.2291 240.779 13.4602 240.018 10.8058C239.257 8.15134 236.488 6.61652 233.834 7.37767C231.179 8.13882 229.644 10.9077 230.406 13.5622C231.167 16.2166 233.936 17.7514 236.59 16.9903Z" fill="#BF1E2D"/>
<path fill-rule="evenodd" clip-rule="evenodd" d="M285.563 277.783C288.217 277.022 289.752 274.253 288.991 271.599C288.23 268.944 285.461 267.409 282.806 268.171C280.152 268.932 278.617 271.701 279.378 274.355C280.139 277.01 282.908 278.544 285.563 277.783Z" fill="#BF1E2D"/>
<path fill-rule="evenodd" clip-rule="evenodd" d="M91.5275 229.766C94.182 229.005 95.7168 226.236 94.9556 223.581C94.1945 220.927 91.4256 219.392 88.7712 220.153C86.1167 220.914 84.5819 223.683 85.343 226.338C86.1042 228.992 88.8731 230.527 91.5275 229.766Z" fill="#BF1E2D"/>
<path fill-rule="evenodd" clip-rule="evenodd" d="M47.8908 132.006C50.5453 131.245 52.0801 128.476 51.3189 125.821C50.5578 123.167 47.7889 121.632 45.1344 122.393C42.48 123.154 40.9452 125.923 41.7063 128.578C42.4675 131.232 45.2364 132.767 47.8908 132.006Z" fill="#BF1E2D"/>
<path fill-rule="evenodd" clip-rule="evenodd" d="M44.7638 90.2513L52.8037 94.7079L48.3471 102.748L40.3073 98.2912L44.7638 90.2513Z" fill="#FDB62A"/>
<path fill-rule="evenodd" clip-rule="evenodd" d="M275.733 17.7787L283.772 22.2352L279.316 30.2751L271.276 25.8185L275.733 17.7787Z" fill="#FDB62A"/>
<path fill-rule="evenodd" clip-rule="evenodd" d="M281.272 207.607L289.311 212.063L284.855 220.103L276.815 215.647L281.272 207.607Z" fill="#FDB62A"/>
<path fill-rule="evenodd" clip-rule="evenodd" d="M112.904 244.443L120.944 248.899L116.488 256.939L108.448 252.483L112.904 244.443Z" fill="#FDB62A"/>
<path fill-rule="evenodd" clip-rule="evenodd" d="M145.144 161.738C144.451 162.138 144.159 163.23 144.559 163.923L149.259 172.064C149.859 173.103 149.393 174.296 148.527 174.796C147.661 175.296 146.294 174.93 145.794 174.064L141.094 165.923C140.421 165.157 139.602 164.938 138.736 165.438L138.562 165.537C137.87 165.938 137.577 167.03 137.977 167.723L142.677 175.864C143.277 176.903 142.811 178.096 141.945 178.596C141.079 179.096 139.713 178.73 139.213 177.864L134.513 169.723C134.113 169.03 133.02 168.737 132.327 169.137C131.634 169.537 131.341 170.63 131.741 171.323L136.541 179.637C138.441 182.928 142.32 184.846 145.964 184.358C148.025 190.327 155.507 210.487 162.511 212.217C163.877 212.583 166.994 210.783 167.361 209.417C169.364 202.487 155.646 185.927 151.507 181.158C153.851 178.419 154.23 174.274 152.33 170.983L147.33 162.323C146.83 161.457 145.837 161.338 145.144 161.738Z" fill="#DCDCDC"/>
<path fill-rule="evenodd" clip-rule="evenodd" d="M149.882 194.34C153.216 202.114 157.87 210.975 162.514 212.219C163.88 212.585 166.998 210.785 167.364 209.419C168.608 204.775 163.262 196.314 158.196 189.54L149.882 194.34V194.34Z" fill="#BF1E2D"/>
<path fill-rule="evenodd" clip-rule="evenodd" d="M204.689 123.668C200.359 126.168 200.495 134.403 202.895 138.56L203.795 140.119C205.695 143.41 209.473 145.155 213.191 144.394C214.925 149.397 222.687 171.242 230.064 173.219C231.43 173.585 234.548 171.785 234.914 170.419C236.89 163.042 221.853 145.397 218.387 141.394C220.731 138.655 221.283 134.41 219.383 131.119L218.483 129.56C216.083 125.403 209.019 121.168 204.689 123.668Z" fill="#DCDCDC"/>
<path fill-rule="evenodd" clip-rule="evenodd" d="M217.429 155.34C220.763 163.114 225.416 171.975 230.061 173.219C231.427 173.585 234.545 171.785 234.911 170.419C236.155 165.775 230.809 157.314 225.743 150.54L217.429 155.34V155.34Z" fill="#BF1E2D"/>
<path d="M199.014 191.837C212.407 184.105 216.995 166.981 209.263 153.589C201.531 140.196 184.407 135.608 171.014 143.34C157.622 151.072 153.034 168.196 160.766 181.589C168.498 194.981 185.622 199.569 199.014 191.837Z" fill="#FFD600"/>
<path d="M195.511 185.775C205.555 179.976 208.996 167.133 203.197 157.089C197.398 147.045 184.555 143.603 174.511 149.402C164.467 155.201 161.025 168.045 166.824 178.089C172.623 188.133 185.467 191.574 195.511 185.775Z" fill="white"/>
<path d="M231.689 170.432C232.549 169.935 232.531 168.291 231.647 166.76C230.764 165.23 229.349 164.392 228.489 164.889C227.628 165.386 227.646 167.03 228.53 168.56C229.413 170.091 230.828 170.929 231.689 170.432Z" fill="white"/>
<path d="M164.138 209.432C164.999 208.935 164.98 207.291 164.097 205.76C163.213 204.23 161.799 203.392 160.938 203.889C160.077 204.386 160.095 206.03 160.979 207.56C161.863 209.091 163.277 209.929 164.138 209.432Z" fill="white"/>
<path fill-rule="evenodd" clip-rule="evenodd" d="M163.5 311C246.067 311 313 244.067 313 161.5C313 78.9334 246.067 12 163.5 12C80.9334 12 14 78.9334 14 161.5C14 244.067 80.9334 311 163.5 311Z" fill="#FDB62A" fill-opacity="0.2"/>
<path fill-rule="evenodd" clip-rule="evenodd" d="M187.704 30.8104C298.585 91.4918 212.841 131.061 281.515 191.634C320.215 225.77 263.024 291.383 195.612 290.118C171.598 289.667 146.884 244.759 123.915 237.07C96.943 228.042 72.6147 251.618 58.6996 219.969C-0.33301 85.7011 117.898 131.376 123.954 71.8169C130.01 12.2576 172.144 22.8809 187.704 30.8104Z" fill="#FBFBFB"/>
<path fill-rule="evenodd" clip-rule="evenodd" d="M285.563 277.539C288.217 276.778 289.752 274.009 288.991 271.355C288.23 268.7 285.461 267.165 282.806 267.927C280.152 268.688 278.617 271.457 279.378 274.111C280.139 276.765 282.908 278.3 285.563 277.539Z" fill="#BF1E2D"/>
<path fill-rule="evenodd" clip-rule="evenodd" d="M89.5432 229.766C92.1976 229.005 93.7324 226.236 92.9713 223.581C92.2101 220.927 89.4412 219.392 86.7868 220.153C84.1323 220.914 82.5975 223.683 83.3587 226.338C84.1198 228.992 86.8887 230.527 89.5432 229.766Z" fill="#BF1E2D"/>
<path fill-rule="evenodd" clip-rule="evenodd" d="M45.9064 132.006C48.5609 131.245 50.0957 128.476 49.3346 125.821C48.5734 123.167 45.8045 121.632 43.1501 122.393C40.4956 123.154 38.9608 125.923 39.7219 128.578C40.4831 131.232 43.252 132.767 45.9064 132.006Z" fill="#BF1E2D"/>
<path fill-rule="evenodd" clip-rule="evenodd" d="M273.748 17.7787L281.788 22.2352L277.331 30.2751L269.292 25.8185L273.748 17.7787Z" fill="#FDB62A"/>
<path fill-rule="evenodd" clip-rule="evenodd" d="M279.283 207.607L287.323 212.063L282.867 220.103L274.827 215.647L279.283 207.607Z" fill="#FDB62A"/>
<path fill-rule="evenodd" clip-rule="evenodd" d="M110.916 244.443L118.956 248.899L114.499 256.939L106.46 252.483L110.916 244.443Z" fill="#FDB62A"/>
<path fill-rule="evenodd" clip-rule="evenodd" d="M42.7755 90.2513L50.8154 94.7079L46.3588 102.748L38.319 98.2912L42.7755 90.2513Z" fill="#FDB62A"/>
<path fill-rule="evenodd" clip-rule="evenodd" d="M143.16 161.738C142.467 162.138 142.174 163.23 142.574 163.923L147.274 172.064C147.874 173.103 147.408 174.296 146.542 174.796C145.676 175.296 144.31 174.93 143.81 174.064L139.11 165.923C138.437 165.157 137.617 164.938 136.751 165.438L136.578 165.537C135.885 165.938 135.592 167.03 135.992 167.723L140.692 175.864C141.292 176.903 140.826 178.096 139.96 178.596C139.094 179.096 137.728 178.73 137.228 177.864L132.528 169.723C132.128 169.03 131.035 168.737 130.343 169.137C129.65 169.537 129.357 170.63 129.757 171.323L134.557 179.637C136.457 182.928 140.335 184.846 143.98 184.358C146.041 190.327 153.523 210.487 160.526 212.217C161.892 212.583 165.01 210.783 165.376 209.417C167.379 202.487 153.662 185.927 149.523 181.158C151.867 178.419 152.245 174.274 150.345 170.983L145.345 162.323C144.845 161.457 143.853 161.338 143.16 161.738Z" fill="#DCDCDC"/>
<path fill-rule="evenodd" clip-rule="evenodd" d="M147.894 194.34C151.228 202.114 155.881 210.975 160.526 212.219C161.892 212.585 165.009 210.785 165.376 209.419C166.62 204.775 161.274 196.314 156.208 189.54L147.894 194.34V194.34Z" fill="#BF1E2D"/>
<path fill-rule="evenodd" clip-rule="evenodd" d="M202.7 123.668C198.37 126.168 198.506 134.403 200.906 138.56L201.806 140.119C203.706 143.41 207.485 145.155 211.202 144.394C212.936 149.397 220.699 171.242 228.076 173.219C229.442 173.585 232.559 171.785 232.925 170.419C234.902 163.042 219.865 145.397 216.399 141.394C218.743 138.655 219.295 134.41 217.395 131.119L216.495 129.56C214.095 125.403 207.031 121.168 202.7 123.668Z" fill="#DCDCDC"/>
<path fill-rule="evenodd" clip-rule="evenodd" d="M215.445 155.34C218.778 163.114 223.432 171.975 228.077 173.219C229.443 173.585 232.56 171.785 232.926 170.419C234.171 165.775 228.824 157.314 223.758 150.54L215.445 155.34V155.34Z" fill="#BF1E2D"/>
<path d="M197.026 191.837C210.418 184.105 215.007 166.981 207.275 153.589C199.543 140.196 182.418 135.608 169.026 143.34C155.634 151.072 151.045 168.196 158.777 181.589C166.509 194.981 183.634 199.569 197.026 191.837Z" fill="#FFD600"/>
<path d="M193.526 185.775C203.571 179.976 207.012 167.133 201.213 157.089C195.414 147.045 182.571 143.603 172.526 149.402C162.482 155.201 159.041 168.045 164.84 178.089C170.639 188.133 183.482 191.574 193.526 185.775Z" fill="white"/>
<path d="M229.7 170.432C230.561 169.935 230.543 168.291 229.659 166.76C228.775 165.23 227.361 164.392 226.5 164.889C225.639 165.386 225.658 167.03 226.541 168.56C227.425 170.091 228.839 170.929 229.7 170.432Z" fill="white"/>
<path d="M162.149 209.432C163.01 208.935 162.992 207.291 162.108 205.76C161.225 204.23 159.81 203.392 158.949 203.889C158.089 204.386 158.107 206.03 158.991 207.56C159.874 209.091 161.289 209.929 162.149 209.432Z" fill="white"/>
</svg>
