<svg width="345" height="299" viewBox="0 0 345 299" fill="none" xmlns="http://www.w3.org/2000/svg">
<path fill-rule="evenodd" clip-rule="evenodd" d="M175.5 299C258.067 299 325 232.067 325 149.5C325 66.9334 258.067 0 175.5 0C92.9334 0 26 66.9334 26 149.5C26 232.067 92.9334 299 175.5 299Z" fill="#FFF0D4"/>
<path fill-rule="evenodd" clip-rule="evenodd" d="M28 160.561L330 198.061L345 237.061L0 198.061L28 160.561Z" fill="#FBFBFB"/>
<path d="M133.36 192.884C147.174 194.58 159.747 184.757 161.443 170.943C163.139 157.129 153.316 144.556 139.502 142.86C125.688 141.164 113.115 150.987 111.419 164.801C109.723 178.615 119.546 191.188 133.36 192.884Z" fill="#40596B"/>
<path d="M111.716 164.837C111.607 165.731 111.46 166.922 111.648 167.852L161.077 173.921C161.187 173.027 161.631 171.873 161.741 170.98L111.716 164.837Z" fill="#334A5E"/>
<path d="M135.078 178.889C141.163 179.636 146.701 175.309 147.448 169.225C148.195 163.14 143.868 157.602 137.783 156.855C131.699 156.108 126.16 160.435 125.413 166.519C124.666 172.604 128.993 178.142 135.078 178.889Z" fill="#F2F2F2"/>
<path d="M227.358 160.901L225.164 178.767L121.543 166.044L127.392 118.402L155.68 121.875C169.675 123.593 179.303 136.261 177.584 150.256L176.67 157.7L188.879 159.199C190.759 151.269 196.328 145.303 203.354 142.237C210.343 139.468 215.128 132.499 214.851 124.909L214.809 122.788L225.231 124.068C228.011 135.894 228.894 148.395 227.358 160.901Z" fill="#FFD15C"/>
<path d="M140.599 133.927C121.84 131.623 104.789 144.945 102.486 163.704L170.376 172.04C172.679 153.281 159.358 136.23 140.599 133.927Z" fill="#BF1E2D"/>
<path d="M140.233 136.904C158.099 139.098 170.71 154.55 170.078 172.003L170.376 172.04C172.679 153.281 159.358 136.23 140.599 133.927C121.84 131.623 104.789 144.945 102.486 163.704L102.783 163.74C106.393 146.653 122.665 134.747 140.233 136.904Z" fill="#FC6551"/>
<path d="M125.414 166.519C125.304 167.412 125.455 168.64 125.643 169.57L147.082 172.202C147.49 171.345 147.934 170.191 148.044 169.298L125.414 166.519Z" fill="#CDD6E0"/>
<path d="M171.221 133.153C172.115 133.263 173.044 133.075 173.64 133.148C169.534 127.203 163.124 122.789 155.68 121.875L127.392 118.402L126.259 127.632L171.221 133.153Z" fill="#FDB62A"/>
<path d="M171.587 130.175L126.029 124.582C123.051 124.216 120.962 121.541 121.327 118.564L121.547 116.777C121.912 113.8 124.587 111.71 127.565 112.076L173.122 117.669C176.1 118.035 178.19 120.71 177.824 123.687L177.605 125.474C177.239 128.451 174.565 130.541 171.587 130.175Z" fill="#BF1E2D"/>
<path d="M225.759 127.155L224.865 127.045C223.638 127.197 219.062 127.541 214.559 127.291C214.668 126.398 214.741 125.802 214.553 124.872L214.511 122.751L224.933 124.031C225.419 124.997 225.607 125.927 225.759 127.155Z" fill="#FDB62A"/>
<path d="M224.933 124.031C224.933 124.031 208.118 125.593 204.983 121.581C202.893 118.907 204.027 109.676 206.701 107.586C210.713 104.452 226.652 110.036 226.652 110.036L224.933 124.031Z" fill="#40596B"/>
<rect x="226.652" y="110.036" width="3.3" height="14.1" transform="rotate(7 226.652 110.036)" fill="#FDB62A"/>
<path d="M209.366 117.888L200.731 116.828C198.944 116.608 197.936 114.973 198.119 113.484C198.338 111.698 199.973 110.69 201.462 110.872L210.097 111.933C211.884 112.152 212.892 113.787 212.709 115.276C212.49 117.063 211.153 118.107 209.366 117.888Z" fill="#CDD6E0"/>
<path d="M219.413 203.45C228.458 204.561 236.691 198.129 237.801 189.084C238.912 180.039 232.48 171.807 223.435 170.696C214.39 169.586 206.158 176.018 205.047 185.062C203.937 194.107 210.369 202.34 219.413 203.45Z" fill="#40596B"/>
<path d="M223.472 170.398C214.539 169.301 206.181 175.832 205.084 184.764C204.755 187.444 205.021 190.197 205.92 192.726L237.645 185.438C237.368 177.847 231.214 171.349 223.472 170.398Z" fill="#334A5E"/>
<path d="M220.62 193.624C224.238 194.068 227.531 191.495 227.975 187.877C228.419 184.26 225.846 180.967 222.229 180.522C218.611 180.078 215.318 182.651 214.873 186.269C214.429 189.887 217.002 193.18 220.62 193.624Z" fill="#F2F2F2"/>
<path d="M227.975 187.877C228.414 184.304 225.802 180.961 222.229 180.522C218.655 180.084 215.312 182.696 214.873 186.269C214.691 187.758 215.103 189.32 215.85 190.62L227.975 187.877Z" fill="#CDD6E0"/>
<path d="M215.787 161.596C202.398 164.788 193.795 178.24 196.987 191.629L245.82 180.396C242.925 167.044 229.437 158.738 215.787 161.596Z" fill="#BF1E2D"/>
<path d="M196.574 190.067C195.916 178.198 204.19 167.426 216.315 164.684C228.142 161.904 240.099 167.906 245.146 178.5C245.182 178.203 244.921 177.868 244.958 177.57C242.226 170.283 236.26 164.715 228.962 162.609C228.664 162.573 228.105 162.202 227.807 162.165C227.51 162.129 226.914 162.056 226.616 162.019C225.723 161.91 224.532 161.763 223.639 161.654C222.448 161.507 221.518 161.695 220.327 161.549C220.029 161.513 220.029 161.513 219.731 161.476C218.801 161.664 217.574 161.816 216.644 162.004L216.346 161.967C203.03 164.564 194.834 177.159 196.574 190.067Z" fill="#FC6551"/>
<path fill-rule="evenodd" clip-rule="evenodd" d="M284 255.061C286.761 255.061 289 252.822 289 250.061C289 247.3 286.761 245.061 284 245.061C281.239 245.061 279 247.3 279 250.061C279 252.822 281.239 255.061 284 255.061Z" fill="#BF1E2D"/>
<path fill-rule="evenodd" clip-rule="evenodd" d="M167 77.061C169.761 77.061 172 74.8225 172 72.061C172 69.2996 169.761 67.061 167 67.061C164.239 67.061 162 69.2996 162 72.061C162 74.8225 164.239 77.061 167 77.061Z" fill="#BF1E2D"/>
<path fill-rule="evenodd" clip-rule="evenodd" d="M41 87.061C43.7614 87.061 46 84.8225 46 82.061C46 79.2996 43.7614 77.061 41 77.061C38.2386 77.061 36 79.2996 36 82.061C36 84.8225 38.2386 87.061 41 87.061Z" fill="#BF1E2D"/>
<path fill-rule="evenodd" clip-rule="evenodd" d="M61 197.061C63.7614 197.061 66 194.822 66 192.061C66 189.3 63.7614 187.061 61 187.061C58.2386 187.061 56 189.3 56 192.061C56 194.822 58.2386 197.061 61 197.061Z" fill="#BF1E2D"/>
<path fill-rule="evenodd" clip-rule="evenodd" d="M49.5 46.061L56 52.561L49.5 59.061L43 52.561L49.5 46.061Z" fill="#FFD841"/>
<path fill-rule="evenodd" clip-rule="evenodd" d="M96.5 208.061L103 214.561L96.5 221.061L90 214.561L96.5 208.061Z" fill="#FFD841"/>
<path fill-rule="evenodd" clip-rule="evenodd" d="M295.5 221.061L302 227.561L295.5 234.061L289 227.561L295.5 221.061Z" fill="#FFD841"/>
<path fill-rule="evenodd" clip-rule="evenodd" d="M183.5 97.061L190 103.561L183.5 110.061L177 103.561L183.5 97.061Z" fill="#FFD841"/>
</svg>
