<svg width="302" height="363" viewBox="0 0 302 363" fill="none" xmlns="http://www.w3.org/2000/svg">
<path fill-rule="evenodd" clip-rule="evenodd" d="M150.102 363C232.669 363 299.602 296.067 299.602 213.5C299.602 130.933 232.669 64 150.102 64C67.5355 64 0.602051 130.933 0.602051 213.5C0.602051 296.067 67.5355 363 150.102 363Z" fill="#FFF0D4"/>
<path d="M153.402 141.696V155.796C183.702 155.796 208.302 180.396 208.302 210.396H222.402C222.102 172.596 191.202 141.696 153.402 141.696Z" fill="#F8B64C"/>
<path d="M215.802 216.996C215.802 255.096 184.902 285.696 147.102 285.696C109.002 285.696 78.4021 254.796 78.4021 216.996C78.4021 178.896 109.302 148.296 147.102 148.296V162.396C116.802 162.396 92.5021 186.996 92.5021 216.996C92.5021 247.296 117.102 271.896 147.102 271.896C177.402 271.896 202.002 247.296 202.002 216.996H215.802Z" fill="#F8B64C"/>
<path d="M208.002 210.396C208.002 180.096 183.402 155.796 153.102 155.796V210.396H208.002Z" fill="#FFD15C"/>
<path d="M201.702 216.996C201.702 247.296 177.102 271.896 146.802 271.896C116.502 271.896 92.2021 247.296 92.2021 216.996C92.2021 186.696 116.802 162.396 146.802 162.396V216.996H201.702Z" fill="#FFD15C"/>
<path d="M176.502 252.096C181.97 252.096 186.402 247.664 186.402 242.196C186.402 236.728 181.97 232.296 176.502 232.296C171.034 232.296 166.602 236.728 166.602 242.196C166.602 247.664 171.034 252.096 176.502 252.096Z" fill="#FF7B65"/>
<path d="M176.502 237.396C177.496 237.396 178.302 236.59 178.302 235.596C178.302 234.602 177.496 233.796 176.502 233.796C175.508 233.796 174.702 234.602 174.702 235.596C174.702 236.59 175.508 237.396 176.502 237.396Z" fill="#E76A56"/>
<path d="M176.502 250.896C177.496 250.896 178.302 250.09 178.302 249.096C178.302 248.102 177.496 247.296 176.502 247.296C175.508 247.296 174.702 248.102 174.702 249.096C174.702 250.09 175.508 250.896 176.502 250.896Z" fill="#E76A56"/>
<path d="M182.535 238.686C183.238 237.983 183.238 236.843 182.535 236.14C181.832 235.437 180.692 235.438 179.989 236.141C179.287 236.844 179.287 237.983 179.99 238.686C180.693 239.389 181.832 239.389 182.535 238.686Z" fill="#E76A56"/>
<path d="M172.883 248.276C173.586 247.573 173.586 246.434 172.883 245.731C172.18 245.028 171.041 245.028 170.338 245.731C169.635 246.434 169.635 247.573 170.338 248.276C171.041 248.979 172.18 248.979 172.883 248.276Z" fill="#E76A56"/>
<path d="M183.402 243.996C184.396 243.996 185.202 243.19 185.202 242.196C185.202 241.202 184.396 240.396 183.402 240.396C182.408 240.396 181.602 241.202 181.602 242.196C181.602 243.19 182.408 243.996 183.402 243.996Z" fill="#E76A56"/>
<path d="M169.602 243.996C170.596 243.996 171.402 243.19 171.402 242.196C171.402 241.202 170.596 240.396 169.602 240.396C168.608 240.396 167.802 241.202 167.802 242.196C167.802 243.19 168.608 243.996 169.602 243.996Z" fill="#E76A56"/>
<path d="M182.499 248.296C183.202 247.594 183.202 246.454 182.499 245.751C181.796 245.048 180.656 245.048 179.953 245.751C179.251 246.454 179.251 247.594 179.953 248.296C180.656 248.999 181.796 248.999 182.499 248.296Z" fill="#E76A56"/>
<path d="M172.92 238.657C173.623 237.954 173.623 236.815 172.92 236.112C172.217 235.409 171.078 235.408 170.375 236.111C169.671 236.814 169.671 237.954 170.374 238.657C171.077 239.36 172.217 239.36 172.92 238.657Z" fill="#E76A56"/>
<path d="M113.502 222.096C118.97 222.096 123.402 217.664 123.402 212.196C123.402 206.728 118.97 202.296 113.502 202.296C108.034 202.296 103.602 206.728 103.602 212.196C103.602 217.664 108.034 222.096 113.502 222.096Z" fill="#FF7B65"/>
<path d="M113.502 207.396C114.496 207.396 115.302 206.59 115.302 205.596C115.302 204.602 114.496 203.796 113.502 203.796C112.508 203.796 111.702 204.602 111.702 205.596C111.702 206.59 112.508 207.396 113.502 207.396Z" fill="#E76A56"/>
<path d="M113.502 220.896C114.496 220.896 115.302 220.09 115.302 219.096C115.302 218.102 114.496 217.296 113.502 217.296C112.508 217.296 111.702 218.102 111.702 219.096C111.702 220.09 112.508 220.896 113.502 220.896Z" fill="#E76A56"/>
<path d="M119.535 208.686C120.238 207.983 120.238 206.843 119.535 206.14C118.832 205.437 117.692 205.438 116.989 206.141C116.287 206.844 116.287 207.983 116.99 208.686C117.693 209.389 118.832 209.389 119.535 208.686Z" fill="#E76A56"/>
<path d="M109.883 218.276C110.586 217.573 110.586 216.434 109.883 215.731C109.18 215.028 108.041 215.028 107.338 215.731C106.635 216.434 106.635 217.573 107.338 218.276C108.041 218.979 109.18 218.979 109.883 218.276Z" fill="#E76A56"/>
<path d="M120.402 213.996C121.396 213.996 122.202 213.19 122.202 212.196C122.202 211.202 121.396 210.396 120.402 210.396C119.408 210.396 118.602 211.202 118.602 212.196C118.602 213.19 119.408 213.996 120.402 213.996Z" fill="#E76A56"/>
<path d="M106.602 213.996C107.596 213.996 108.402 213.19 108.402 212.196C108.402 211.202 107.596 210.396 106.602 210.396C105.608 210.396 104.802 211.202 104.802 212.196C104.802 213.19 105.608 213.996 106.602 213.996Z" fill="#E76A56"/>
<path d="M119.499 218.296C120.202 217.594 120.202 216.454 119.499 215.751C118.796 215.048 117.656 215.048 116.953 215.751C116.251 216.454 116.251 217.594 116.953 218.296C117.656 218.999 118.796 218.999 119.499 218.296Z" fill="#E76A56"/>
<path d="M109.92 208.657C110.623 207.954 110.623 206.815 109.92 206.112C109.217 205.409 108.078 205.408 107.375 206.111C106.671 206.814 106.671 207.954 107.374 208.657C108.077 209.36 109.217 209.36 109.92 208.657Z" fill="#E76A56"/>
<path d="M116.802 188.196C118.293 188.196 119.502 186.987 119.502 185.496C119.502 184.005 118.293 182.796 116.802 182.796C115.311 182.796 114.102 184.005 114.102 185.496C114.102 186.987 115.311 188.196 116.802 188.196Z" fill="#40596B"/>
<path d="M117.702 185.496C118.199 185.496 118.602 185.093 118.602 184.596C118.602 184.099 118.199 183.696 117.702 183.696C117.205 183.696 116.802 184.099 116.802 184.596C116.802 185.093 117.205 185.496 117.702 185.496Z" fill="white"/>
<path d="M134.202 240.096C135.693 240.096 136.902 238.887 136.902 237.396C136.902 235.905 135.693 234.696 134.202 234.696C132.711 234.696 131.502 235.905 131.502 237.396C131.502 238.887 132.711 240.096 134.202 240.096Z" fill="#40596B"/>
<path d="M134.802 237.396C135.299 237.396 135.702 236.993 135.702 236.496C135.702 235.999 135.299 235.596 134.802 235.596C134.305 235.596 133.902 235.999 133.902 236.496C133.902 236.993 134.305 237.396 134.802 237.396Z" fill="white"/>
<path d="M191.802 225.996C193.293 225.996 194.502 224.787 194.502 223.296C194.502 221.805 193.293 220.596 191.802 220.596C190.311 220.596 189.102 221.805 189.102 223.296C189.102 224.787 190.311 225.996 191.802 225.996Z" fill="#40596B"/>
<path d="M192.702 222.996C193.199 222.996 193.602 222.593 193.602 222.096C193.602 221.599 193.199 221.196 192.702 221.196C192.205 221.196 191.802 221.599 191.802 222.096C191.802 222.593 192.205 222.996 192.702 222.996Z" fill="white"/>
<path d="M192.102 183.696C193.593 183.696 194.802 182.487 194.802 180.996C194.802 179.505 193.593 178.296 192.102 178.296C190.611 178.296 189.402 179.505 189.402 180.996C189.402 182.487 190.611 183.696 192.102 183.696Z" fill="#40596B"/>
<path d="M193.002 180.996C193.499 180.996 193.902 180.593 193.902 180.096C193.902 179.599 193.499 179.196 193.002 179.196C192.505 179.196 192.102 179.599 192.102 180.096C192.102 180.593 192.505 180.996 193.002 180.996Z" fill="white"/>
<path d="M161.202 255.096C162.693 255.096 163.902 253.887 163.902 252.396C163.902 250.905 162.693 249.696 161.202 249.696C159.711 249.696 158.502 250.905 158.502 252.396C158.502 253.887 159.711 255.096 161.202 255.096Z" fill="#40596B"/>
<path d="M161.802 252.096C162.299 252.096 162.702 251.693 162.702 251.196C162.702 250.699 162.299 250.296 161.802 250.296C161.305 250.296 160.902 250.699 160.902 251.196C160.902 251.693 161.305 252.096 161.802 252.096Z" fill="white"/>
<path d="M134.202 200.496C136.687 200.496 138.702 198.481 138.702 195.996C138.702 193.511 136.687 191.496 134.202 191.496C131.717 191.496 129.702 193.511 129.702 195.996C129.702 198.481 131.717 200.496 134.202 200.496Z" fill="white"/>
<path d="M150.402 235.296C152.202 233.796 152.502 231.096 151.002 228.996C149.502 227.196 146.802 226.896 144.702 228.396C144.102 228.996 144.402 230.196 145.002 231.396L141.702 234.096L144.102 237.096L147.402 234.396C148.602 235.296 149.802 235.896 150.402 235.296Z" fill="#BF1E2D"/>
<path d="M174.702 190.596C172.002 188.196 171.402 184.296 173.802 181.596C176.202 178.896 180.102 178.296 182.802 180.696C183.702 181.596 183.402 183.396 182.502 185.196L187.302 189.096L183.702 193.296L178.902 189.396C177.402 190.596 175.602 191.496 174.702 190.596Z" fill="#BF1E2D"/>
<path d="M160.602 206.496C160.602 205.296 161.802 204.396 162.702 204.696C166.602 204.996 169.902 201.996 170.202 198.096C170.202 196.896 171.402 195.996 172.302 196.296C173.502 196.296 174.402 197.496 174.102 198.396C173.802 204.696 168.402 209.196 162.102 208.896C161.202 208.596 160.302 207.696 160.602 206.496Z" fill="#5DBB88"/>
<path d="M135.702 253.596C136.902 253.596 137.802 254.496 137.802 255.396C138.102 259.296 141.402 262.296 145.302 261.996C146.502 261.996 147.402 262.896 147.402 263.796C147.402 264.996 146.502 265.896 145.602 265.896C139.302 266.496 133.902 261.696 133.602 255.696C133.602 254.796 134.502 253.596 135.702 253.596Z" fill="#5DBB88"/>
<path d="M163.902 179.796C167.879 179.796 171.102 176.572 171.102 172.596C171.102 168.619 167.879 165.396 163.902 165.396C159.926 165.396 156.702 168.619 156.702 172.596C156.702 176.572 159.926 179.796 163.902 179.796Z" fill="#F8B64C"/>
<path d="M283.29 115.437L287.821 110.906C293.711 116.947 297.335 125.102 297.486 134.164H264.564L283.29 115.437Z" fill="#FF7B65"/>
<path d="M264.564 134.164L283.29 115.437C287.972 120.27 290.842 126.915 290.993 134.164H264.564Z" fill="#FFD15C"/>
<path d="M288.727 131.898C289.784 130.992 289.935 129.331 289.029 128.274C288.123 127.217 286.462 127.066 285.405 127.972C284.951 128.274 285.102 129.029 285.556 129.784L283.592 131.445L284.951 133.106L286.915 131.445C287.67 131.898 288.425 132.2 288.727 131.898Z" fill="#BF1E2D"/>
<path d="M145.233 14.9513L126.507 33.6778V0.755371C135.568 0.906392 143.723 4.53088 149.764 10.4207L145.233 14.9513Z" fill="#FF7B65"/>
<path d="M145.233 14.9513L126.507 33.6778V7.24927C133.756 7.40029 140.25 10.2697 145.233 14.9513Z" fill="#FFD15C"/>
<path d="M131.188 24.9187C132.773 24.9187 134.058 23.634 134.058 22.0493C134.058 20.4646 132.773 19.1799 131.188 19.1799C129.604 19.1799 128.319 20.4646 128.319 22.0493C128.319 23.634 129.604 24.9187 131.188 24.9187Z" fill="#BF1E2D"/>
<path d="M133.303 11.0247C133.152 11.4778 132.699 11.7798 132.246 11.6288C130.735 11.1758 129.074 12.0819 128.772 13.5921C128.621 14.0452 128.168 14.3472 127.715 14.1962C127.262 14.0452 126.96 13.5921 127.111 13.139C127.866 10.7227 130.282 9.36352 132.699 9.9676C133.152 10.1186 133.454 10.5717 133.303 11.0247Z" fill="#5DBB88"/>
<path d="M78.7721 72.5186C80.0232 72.5186 81.0374 71.5044 81.0374 70.2533C81.0374 69.0022 80.0232 67.988 78.7721 67.988C77.521 67.988 76.5068 69.0022 76.5068 70.2533C76.5068 71.5044 77.521 72.5186 78.7721 72.5186Z" fill="#F8B64C"/>
<path d="M89.7966 57.5676C89.7966 56.0574 88.5884 55.0002 87.2292 55.0002C85.719 55.0002 84.6619 56.2084 84.6619 57.5676C84.6619 58.0207 85.2659 58.3227 86.1721 58.4737V61.0411H88.4374V58.4737C89.1925 58.4737 89.7966 58.1717 89.7966 57.5676Z" fill="#BF1E2D"/>
<path d="M266.402 270.087C267.308 269.181 267.308 267.671 266.402 266.765C265.496 265.858 263.986 265.858 263.079 266.765C262.777 267.067 262.928 267.671 263.381 268.426L261.72 270.087L263.23 271.446L264.892 269.785C265.496 270.238 266.1 270.389 266.402 270.087Z" fill="#BF1E2D"/>
<path d="M89.3762 281.739C90.9609 281.739 92.2456 280.454 92.2456 278.87C92.2456 277.285 90.9609 276 89.3762 276C87.7915 276 86.5068 277.285 86.5068 278.87C86.5068 280.454 87.7915 281.739 89.3762 281.739Z" fill="#F8B64C"/>
<path d="M60.3762 137.739C61.9609 137.739 63.2456 136.454 63.2456 134.87C63.2456 133.285 61.9609 132 60.3762 132C58.7915 132 57.5068 133.285 57.5068 134.87C57.5068 136.454 58.7915 137.739 60.3762 137.739Z" fill="#F8B64C"/>
<path d="M168.433 122.89C167.98 122.89 167.678 122.437 167.678 121.984C167.98 120.474 166.923 118.964 165.262 118.661C164.809 118.661 164.507 118.208 164.507 117.755C164.507 117.302 164.96 117 165.413 117C167.829 117.453 169.491 119.719 169.188 122.135C169.339 122.739 168.886 123.041 168.433 122.89Z" fill="#F8B64C"/>
<path d="M212.621 279.229C213.789 279.229 214.735 278.282 214.735 277.115C214.735 275.947 213.789 275 212.621 275C211.453 275 210.507 275.947 210.507 277.115C210.507 278.282 211.453 279.229 212.621 279.229Z" fill="#F8B64C"/>
<path d="M255.528 255.74C254.169 255.589 253.263 254.381 253.565 253.022C253.716 251.663 254.924 250.756 256.283 251.058C256.736 251.058 256.887 251.814 257.039 252.569L259.304 252.871L259.002 254.834L256.585 254.532C256.434 255.287 255.981 255.891 255.528 255.74Z" fill="#BF1E2D"/>
<path d="M112.527 135.041C114.195 135.041 115.548 133.689 115.548 132.021C115.548 130.353 114.195 129 112.527 129C110.859 129 109.507 130.353 109.507 132.021C109.507 133.689 110.859 135.041 112.527 135.041Z" fill="#F8B64C"/>
<path d="M300.444 204.308C299.991 204.308 299.689 204.761 299.84 205.214C300.142 206.573 299.085 207.932 297.725 208.234C297.272 208.234 296.97 208.687 297.121 209.141C297.121 209.594 297.574 209.896 298.027 209.745C300.293 209.443 301.803 207.328 301.501 205.063C301.35 204.61 300.897 204.308 300.444 204.308Z" fill="#F8B64C"/>
<path d="M63.8686 341.418C63.4155 341.418 63.1135 341.871 63.2645 342.324C63.5665 343.683 62.5094 345.043 61.1502 345.345C60.6971 345.345 60.3951 345.798 60.5461 346.251C60.5461 346.704 60.9992 347.006 61.4522 346.855C63.7175 346.553 65.2278 344.439 64.9257 342.173C64.7747 341.569 64.3216 341.267 63.8686 341.418Z" fill="#F8B64C"/>
<path d="M76.2522 331.904C75.9502 332.206 75.3461 332.206 75.0441 331.753C73.9869 330.545 72.1747 330.394 70.9665 331.451C70.6645 331.753 70.0604 331.753 69.7584 331.3C69.4563 330.998 69.4563 330.394 69.9094 330.092C71.8726 328.43 74.591 328.732 76.2522 330.545C76.5543 331.149 76.5543 331.602 76.2522 331.904Z" fill="#F8B64C"/>
<path d="M288.211 188.904C287.909 189.206 287.305 189.206 287.003 188.753C285.946 187.545 284.134 187.394 282.926 188.451C282.623 188.753 282.019 188.753 281.717 188.3C281.415 187.998 281.415 187.394 281.868 187.092C283.832 185.43 286.55 185.732 288.211 187.545C288.664 188.149 288.513 188.602 288.211 188.904Z" fill="#F8B64C"/>
</svg>
