<svg width="73" height="69" viewBox="0 0 73 69" fill="none" xmlns="http://www.w3.org/2000/svg">
<circle cx="36.0757" cy="39.471" r="28.436" fill="#C5002E"/>
<circle cx="70.2411" cy="13.7936" r="2.75872" fill="#FEBB00"/>
<ellipse cx="4.4564" cy="4.24419" rx="4.4564" ry="4.24419" fill="#FEBB00"/>
<ellipse cx="2.12209" cy="57.9331" rx="2.12209" ry="2.3343" fill="#FEBB00"/>
<ellipse cx="65.1484" cy="67.9069" rx="1.06105" ry="0.848837" fill="#FEBB00"/>
<path d="M33.9629 47.1605C33.3598 47.1605 32.7568 46.9021 32.4122 46.3852L27.5879 40.1824C26.8987 39.3209 27.071 38.1148 27.9325 37.4256C28.7939 36.7364 30 36.9088 30.6892 37.7702L33.9629 41.9916L41.1995 32.6013C41.8887 31.7398 43.0948 31.5675 43.9562 32.2567C44.8177 32.9459 44.9901 34.152 44.3009 35.0135L35.5136 46.3852C35.0828 46.8159 34.566 47.1605 33.9629 47.1605Z" fill="#FEBB00"/>
<circle cx="48.1714" cy="43.9273" r="1.06105" fill="white"/>
<circle cx="20.372" cy="32.2558" r="1.69767" fill="white"/>
<circle cx="45.2006" cy="23.1308" r="0.636628" fill="white"/>
<circle cx="27.5871" cy="53.0523" r="0.848837" fill="white"/>
<circle cx="36.9244" cy="32.6802" r="0.424419" fill="white"/>
</svg>
