<svg width="14" height="16" viewBox="0 0 11 13" fill="none" xmlns="http://www.w3.org/2000/svg">
<path d="M4.61987 12.0873C4.30715 12.0874 3.99521 12.056 3.6888 11.9935C3.09792 11.8725 2.53666 11.6363 2.03703 11.2984C1.29426 10.797 0.712841 10.0909 0.363238 9.2657C0.245049 8.98626 0.154819 8.69581 0.0938671 8.39859C-0.031289 7.78419 -0.031289 7.15086 0.0938671 6.53645C0.214898 5.94557 0.451092 5.38431 0.788972 4.88469C1.29041 4.14191 1.9965 3.5605 2.82169 3.21089C3.10113 3.09271 3.39158 3.00248 3.6888 2.94152C4.3032 2.81637 4.93653 2.81637 5.55094 2.94152C6.14182 3.06255 6.70308 3.29875 7.2027 3.63663C7.94548 4.13807 8.52689 4.84416 8.8765 5.66935C8.99469 5.94878 9.08492 6.23924 9.14587 6.53645C9.26894 7.14107 9.27087 7.76409 9.15155 8.36945C9.04922 8.89015 8.8568 9.38899 8.58296 9.84353C8.17284 10.5283 7.59211 11.0951 6.89748 11.4884C6.20286 11.8816 5.4181 12.088 4.61987 12.0873ZM6.21122 5.30332C6.13636 5.30326 6.06222 5.31798 5.99307 5.34664C5.92391 5.37531 5.8611 5.41734 5.80823 5.47034L4.19342 7.08301C4.08645 7.19017 4.02643 7.33544 4.02656 7.48686C4.02669 7.63828 4.08697 7.78344 4.19413 7.89041C4.3013 7.99739 4.44656 8.05741 4.59798 8.05728C4.7494 8.05714 4.89456 7.99687 5.00153 7.8897L5.80823 7.08301L6.61492 6.27703C6.69556 6.19762 6.75066 6.09596 6.77319 5.98505C6.79571 5.87414 6.78462 5.75903 6.74134 5.65446C6.69806 5.54989 6.62456 5.46061 6.53025 5.39805C6.43593 5.3355 6.3251 5.30251 6.21193 5.30332H6.21122Z" fill="#C5002E"/>
<path d="M2.35938 0.604854C2.35938 0.444629 2.42302 0.290966 2.53632 0.17767C2.64962 0.0643737 2.80328 0.000724435 2.9635 0.000724435L6.58828 0.000724435C6.74851 0.000724435 6.90217 0.0643737 7.01547 0.17767C7.12877 0.290966 7.19241 0.444629 7.19241 0.604854C7.19241 0.76508 7.12877 0.918742 7.01547 1.03204C6.90217 1.14534 6.74851 1.20898 6.58828 1.20898L2.9635 1.20898C2.80328 1.20898 2.64962 1.14534 2.53632 1.03204C2.42302 0.918742 2.35938 0.76508 2.35938 0.604854V0.604854Z" fill="#C5002E"/>
<path d="M8.55844 1.73257C8.67547 1.61554 8.8342 1.5498 8.9997 1.5498C9.1652 1.5498 9.32393 1.61554 9.44096 1.73257L10.238 2.52965C10.3551 2.64668 10.4208 2.8054 10.4208 2.9709C10.4208 3.13641 10.3551 3.29513 10.238 3.41216C10.121 3.52919 9.96228 3.59493 9.79678 3.59493C9.63127 3.59493 9.47255 3.52919 9.35552 3.41216L8.55844 2.61508C8.44142 2.49806 8.37567 2.33933 8.37567 2.17383C8.37567 2.00832 8.44142 1.8496 8.55844 1.73257Z" fill="#C5002E"/>
</svg>
