<svg width="26" height="24" viewBox="0 0 26 24" fill="none" xmlns="http://www.w3.org/2000/svg">
<path d="M12.7383 2.84766C6.98828 2.84766 2.33203 7.09024 2.33203 12.3177C2.33203 17.5452 6.98828 21.7878 12.7383 21.7878C18.4987 21.7878 23.1654 17.5452 23.1654 12.3177C23.1654 7.09024 18.4987 2.84766 12.7383 2.84766ZM12.7487 19.8937C8.14453 19.8937 4.41536 16.5035 4.41536 12.3177C4.41536 8.13194 8.14453 4.74167 12.7487 4.74167C17.3529 4.74167 21.082 8.13194 21.082 12.3177C21.082 16.5035 17.3529 19.8937 12.7487 19.8937ZM12.5195 7.58268H12.457C12.0404 7.58268 11.707 7.88572 11.707 8.26452V12.7344C11.707 13.0658 11.8945 13.3783 12.2174 13.5488L16.5404 15.9069C16.8945 16.0963 17.3529 16.0016 17.5612 15.6796C17.6135 15.6029 17.6483 15.5174 17.6635 15.4283C17.6787 15.3391 17.674 15.2481 17.6497 15.1606C17.6254 15.0731 17.582 14.991 17.5221 14.9191C17.4621 14.8471 17.3869 14.7869 17.3008 14.742L13.2695 12.5639V8.26452C13.2695 7.88572 12.9362 7.58268 12.5195 7.58268Z" fill="#323643"/>
</svg>
