<svg width="15" height="18" viewBox="0 0 15 18" fill="none" xmlns="http://www.w3.org/2000/svg">
<path fill-rule="evenodd" clip-rule="evenodd" d="M4.17622 1.81449C6.27004 0.597886 8.84369 0.61915 10.9179 1.87019C12.9716 3.14671 14.2199 5.42492 14.2083 7.87563C14.1605 10.3103 12.822 12.5988 11.1489 14.368C10.1833 15.3937 9.103 16.3007 7.93022 17.0705C7.80944 17.1403 7.67713 17.187 7.53984 17.2084C7.4077 17.2028 7.27901 17.1637 7.16539 17.0948C5.37491 15.9382 3.80411 14.4619 2.52857 12.7368C1.46123 11.2968 0.854841 9.55709 0.791749 7.7539C0.790364 5.29848 2.0824 3.03109 4.17622 1.81449ZM5.38619 8.76999C5.7384 9.6383 6.56975 10.2047 7.49207 10.2047C8.0963 10.209 8.67713 9.967 9.10514 9.53253C9.53315 9.09807 9.77279 8.50727 9.77064 7.89178C9.77387 6.95228 9.22076 6.10346 8.36958 5.74165C7.51839 5.37984 6.53703 5.57641 5.88371 6.23958C5.23039 6.90274 5.03398 7.90169 5.38619 8.76999Z" fill="#9796A1"/>
</svg>
