<svg width="17" height="19" viewBox="0 0 17 19" fill="none" xmlns="http://www.w3.org/2000/svg">
<path d="M16.739 9.98012C16.7068 7.71577 15.9282 5.77535 14.3972 4.168C14.3533 4.12216 14.3124 4.07022 14.2685 4.02132C13.7357 3.41933 12.8429 3.30932 12.2018 3.77075C11.5461 4.24134 11.3208 5.11835 11.6896 5.84869C11.7774 6.02592 11.9091 6.18788 12.0467 6.32539C13.3932 7.68827 13.9201 9.32312 13.4459 11.233C12.9922 13.0573 11.8389 14.2521 10.1235 14.796C8.45794 15.3216 6.90359 14.9916 5.55122 13.8549C4.39205 12.8831 3.79783 11.5814 3.77734 10.026C3.75977 8.79752 4.16958 7.71272 4.93358 6.77765C5.03018 6.65847 5.16191 6.56985 5.26436 6.45679C5.69466 5.99231 5.81175 5.43921 5.62733 4.83416C5.43706 4.223 5.00969 3.85631 4.40669 3.73408C3.93541 3.63935 3.51096 3.76769 3.13042 4.07327C2.46302 4.60498 2.0093 5.31392 1.60828 6.06259C0.911599 7.36436 0.598389 8.77002 0.648151 10.2582C0.706696 12.0733 1.28336 13.6929 2.36935 15.1108C3.3968 16.4492 4.69063 17.3996 6.26254 17.8793C8.91751 18.6922 11.3939 18.2644 13.6186 16.5226C15.0647 15.3919 16.0131 13.8885 16.4814 12.0672C16.66 11.3858 16.7361 10.6891 16.739 9.98012Z" fill="white"/>
<path d="M10.2698 5.00522C10.2698 3.88068 10.2727 3.48795 10.2698 2.36342C10.2669 1.7217 9.97999 1.23583 9.44724 0.930245C8.92619 0.630776 8.38173 0.642999 7.8724 0.963859C7.38356 1.26944 7.11133 1.73698 7.11133 2.33897C7.10547 4.60026 7.10547 5.3949 7.11133 7.65619C7.11426 8.49654 7.72604 9.19326 8.52224 9.27271C9.34771 9.35827 10.0854 8.80212 10.2493 7.96483C10.2727 7.84565 10.2756 7.72342 10.2756 7.60119C10.2698 6.49193 10.2698 6.11448 10.2698 5.00522Z" fill="white"/>
</svg>
