<svg width="21" height="19" viewBox="0 0 21 19" fill="none" xmlns="http://www.w3.org/2000/svg">
<path opacity="0.4" d="M20.083 5.71725V13.2827C20.0875 14.5639 19.5819 15.7943 18.6774 16.7027C17.773 17.611 16.5441 18.1227 15.2616 18.125H5.76369C4.47898 18.1272 3.24612 17.619 2.3369 16.7122C1.42768 15.8055 0.916746 14.5747 0.916748 13.2912V5.71725C0.917448 5.15363 1.0184 4.59462 1.21489 4.06629C1.90725 2.15175 3.72605 0.875736 5.76369 0.875001H15.2361C17.2986 0.873849 19.135 2.17898 19.8104 4.12586C19.9978 4.63524 20.0902 5.17461 20.083 5.71725Z" fill="#9796A1"/>
<path d="M19.8106 4.13437L19.7169 4.21096C17.9536 5.58109 12.2463 10.168 12.2463 10.168C11.2539 10.9743 9.83143 10.9743 8.83901 10.168C8.83901 10.168 3.16579 5.5896 1.40249 4.21947L1.21509 4.0748C1.90461 2.1569 3.72406 0.877028 5.76388 0.875H15.2363C17.301 0.875101 19.1381 2.18413 19.8106 4.13437Z" fill="#9796A1"/>
</svg>
