<svg width="19" height="21" viewBox="0 0 19 21" fill="none" xmlns="http://www.w3.org/2000/svg">
<path opacity="0.4" d="M17.625 12.1441C16.7181 11.6191 16.4042 10.4868 16.9166 9.58856C17.0848 9.29854 17.3293 9.05743 17.625 8.89005C18.0744 8.63867 18.4026 8.22341 18.5372 7.73595C18.6718 7.24848 18.6016 6.7289 18.3422 6.29191L17.7037 5.17599C17.4456 4.73826 17.0193 4.41858 16.5188 4.28753C16.0183 4.15647 15.4848 4.22482 15.0362 4.47747C14.5862 4.73053 14.0514 4.7991 13.5495 4.6681C13.0476 4.5371 12.6197 4.21727 12.3599 3.77896C12.1898 3.48812 12.0995 3.15957 12.0975 2.82489C12.0998 2.3196 11.8954 1.83424 11.5293 1.47614C11.1633 1.11805 10.6659 0.916743 10.1471 0.916748H8.86146C7.78287 0.916738 6.90716 1.76586 6.90234 2.81637C6.906 3.49769 6.53476 4.12875 5.9294 4.47019C5.32405 4.81163 4.57731 4.81116 3.97241 4.46896C3.51961 4.20602 2.97681 4.1328 2.46768 4.266C1.95856 4.3992 1.52648 4.72746 1.26989 5.17599L0.657662 6.24932C0.122558 7.16011 0.442954 8.32081 1.37484 8.84746C2.30878 9.37726 2.62578 10.5437 2.08327 11.4541C1.91734 11.7436 1.67207 11.9825 1.37484 12.1441C0.925417 12.3955 0.597197 12.8107 0.46264 13.2982C0.328083 13.7857 0.398254 14.3053 0.657662 14.7422L1.26989 15.8326C1.81384 16.7423 3.01139 17.051 3.94618 16.5226C4.88195 16.0064 6.06989 16.3175 6.61372 17.2211C6.7868 17.5107 6.87738 17.8401 6.8761 18.1752C6.87608 18.6842 7.08489 19.1722 7.45609 19.5305C7.82728 19.8889 8.3301 20.0879 8.85271 20.0833H10.1384C11.2204 20.0833 12.0975 19.229 12.0975 18.1752C12.0905 17.667 12.2929 17.1772 12.6594 16.8154C13.0259 16.4536 13.526 16.25 14.0479 16.25C14.392 16.2479 14.7304 16.3362 15.0274 16.5056C15.9625 17.0268 17.1543 16.7147 17.695 15.8071L18.3422 14.7167C18.8647 13.8123 18.5454 12.6669 17.625 12.1441Z" fill="#9796A1"/>
<path d="M9.49984 12.8962C10.823 12.8962 11.8957 11.8235 11.8957 10.5003C11.8957 9.17714 10.823 8.10449 9.49984 8.10449C8.17665 8.10449 7.104 9.17714 7.104 10.5003C7.104 11.8235 8.17665 12.8962 9.49984 12.8962Z" fill="#9796A1"/>
</svg>
