<svg width="21" height="19" viewBox="0 0 21 19" fill="none" xmlns="http://www.w3.org/2000/svg">
<path fill-rule="evenodd" clip-rule="evenodd" d="M20.08 6.02616H16.0218C14.1332 6.02948 12.6033 7.52118 12.5999 9.36254C12.5973 11.2081 14.129 12.7064 16.0218 12.7089H20.0834V13.0021C20.0834 16.2213 18.1318 18.125 14.8292 18.125H6.17182C2.86834 18.125 0.916748 16.2213 0.916748 13.0021V5.99045C0.916748 2.77118 2.86834 0.875 6.17182 0.875H14.8258C18.1284 0.875 20.08 2.77118 20.08 5.99045V6.02616ZM5.45876 6.01878H10.8638H10.8672H10.874C11.2786 6.01712 11.6057 5.69569 11.604 5.30034C11.6023 4.90582 11.2718 4.58689 10.8672 4.58855H5.45876C5.05669 4.59021 4.73043 4.90832 4.72873 5.30117C4.72702 5.69569 5.05413 6.01712 5.45876 6.01878Z" fill="#9796A1"/>
<path opacity="0.4" d="M14.3693 9.78411C14.5698 10.6957 15.369 11.337 16.2814 11.3203H19.3959C19.7755 11.3203 20.0835 11.0059 20.0835 10.6173V8.19119C20.0827 7.80339 19.7755 7.48814 19.3959 7.4873H16.2081C15.1702 7.49064 14.3319 8.35215 14.3335 9.41382C14.3335 9.53808 14.3457 9.66235 14.3693 9.78411Z" fill="#9796A1"/>
<path d="M16.2503 10.3625C16.7796 10.3625 17.2087 9.93341 17.2087 9.40413C17.2087 8.87486 16.7796 8.4458 16.2503 8.4458C15.7211 8.4458 15.292 8.87486 15.292 9.40413C15.292 9.93341 15.7211 10.3625 16.2503 10.3625Z" fill="#9796A1"/>
</svg>
